<?xml version="1.0" encoding="UTF-8" standalone="no"?>
<svg
   xmlns:dc="http://purl.org/dc/elements/1.1/"
   xmlns:cc="http://creativecommons.org/ns#"
   xmlns:rdf="http://www.w3.org/1999/02/22-rdf-syntax-ns#"
   xmlns:svg="http://www.w3.org/2000/svg"
   xmlns="http://www.w3.org/2000/svg"
   xmlns:sodipodi="http://sodipodi.sourceforge.net/DTD/sodipodi-0.dtd"
   xmlns:inkscape="http://www.inkscape.org/namespaces/inkscape"
   enable-background="new 0 0 800 800"
   height="32"
   id="Layer_1"
   version="1.1"
   viewBox="0 0 26.81667 32"
   width="26.816669"
   xml:space="preserve"
   sodipodi:docname="ac.svg"
   inkscape:version="0.92.1 r15371"><metadata
     id="metadata81"><rdf:RDF><cc:Work
         rdf:about=""><dc:format>image/svg+xml</dc:format><dc:type
           rdf:resource="http://purl.org/dc/dcmitype/StillImage" /><dc:title></dc:title></cc:Work></rdf:RDF></metadata><defs
     id="defs79" /><sodipodi:namedview
     pagecolor="#ffffff"
     bordercolor="#666666"
     borderopacity="1"
     objecttolerance="10"
     gridtolerance="10"
     guidetolerance="10"
     inkscape:pageopacity="0"
     inkscape:pageshadow="2"
     inkscape:window-width="1024"
     inkscape:window-height="705"
     id="namedview77"
     showgrid="false"
     inkscape:zoom="13.350176"
     inkscape:cx="14.877185"
     inkscape:cy="14.787321"
     inkscape:window-x="-4"
     inkscape:window-y="-4"
     inkscape:window-maximized="1"
     inkscape:current-layer="g74" /><g
     id="g74"
     transform="translate(-2,-765.99999)"><g
       id="g161"><path
         id="path60"
         d="M 14.518056,783.18033 V 769.9647 c 0,-1.08303 -0.88172,-1.96472 -1.96479,-1.96472 H 9.2776262 c -1.0830326,0 -1.9647529,0.88169 -1.9647529,1.96472 v 13.21634 C 5.2604012,784.43416 4,786.66467 4,789.0845 c 0,3.81324 3.1022434,6.91549 6.915446,6.91549 3.813203,0 6.915409,-3.10225 6.915409,-6.91549 0,-2.4205 -1.260401,-4.65037 -3.312799,-5.90417 z m -3.60261,11.62901 c -3.1567382,0 -5.7247969,-2.5681 -5.7247969,-5.72484 0,-2.10288 1.150149,-4.03311 3.0012717,-5.03637 0.1920318,-0.10435 0.3116387,-0.30503 0.3116387,-0.52357 V 769.9647 c 0,-0.42657 0.3474985,-0.77407 0.7741038,-0.77407 h 3.2756397 c 0.426569,0 0.774104,0.3475 0.774104,0.77407 v 13.55986 c 0,0.21858 0.119607,0.41926 0.311639,0.52357 1.851122,1.00326 3.001234,2.93345 3.001234,5.03637 -7.4e-5,3.15674 -2.568095,5.72484 -5.724834,5.72484 z"
         inkscape:connector-curvature="0"
         style="fill:#000000;stroke-width:0.03712194" /><path
         id="path62"
         d="m 12.555939,785.49986 v -14.02489 c 0,-1.01659 -0.735534,-1.84381 -1.640493,-1.84381 -0.90429,0 -1.6398244,0.82722 -1.6398244,1.84381 v 13.97641 c -1.4650916,0.62721 -2.4212414,2.05644 -2.4212414,3.68231 0,2.21124 1.7993375,4.00987 4.0099118,4.00987 2.211243,0 4.010543,-1.79859 4.010543,-4.00987 0,-1.57141 -0.915612,-2.98197 -2.318896,-3.63383 z m 0.127588,5.78397 c -0.01195,-6.7e-4 -0.02327,-0.003 -0.03523,-0.003 H 9.1826311 c -0.043173,0 -0.085046,0.005 -0.1255835,0.014 -0.2564755,-0.21461 -0.4724509,-0.47379 -0.6392027,-0.76546 h 4.8935631 c -0.164117,0.28707 -0.376751,0.54287 -0.627881,0.75484 z m 0.983991,-1.94549 H 8.1633369 c -0.036528,0 -0.072425,0.005 -0.1069854,0.0107 -0.00598,-0.0711 -0.011285,-0.14289 -0.011285,-0.21531 0,-0.18936 0.024575,-0.37274 0.059766,-0.55286 0.019303,0.002 0.038533,0.006 0.058467,0.006 h 5.4610085 c 0.03519,0.17807 0.0598,0.36012 0.0598,0.5468 0,0.0691 -0.0053,0.13691 -0.01065,0.20532 -0.0019,4e-5 -0.0039,-6.3e-4 -0.0059,-6.3e-4 z m -3.201247,-3.88496 v -0.75149 h 0.898982 v 0.75149 z m 0.449175,-14.63157 c 0.239882,0 0.449807,0.30495 0.449807,0.65316 v 12.03623 h -0.898982 v -12.03623 c 0,-0.34821 0.209961,-0.65316 0.449175,-0.65316 z M 9.5513634,786.6434 c 0.00264,0 0.00598,6.7e-4 0.00932,6.7e-4 H 12.1832 c 0.352806,0.18602 0.651118,0.44646 0.891669,0.75216 H 8.6457365 c 0.2418495,-0.309 0.5481426,-0.56618 0.9056269,-0.75283 z"
         inkscape:connector-curvature="0"
         style="fill:#000000;stroke-width:0.03712194" /><path
         id="path64"
         d="m 18.052139,781.0103 c 0.622572,0 1.126911,-0.50431 1.126911,-1.12621 0,-0.6219 -0.504339,-1.12691 -1.126911,-1.12691 -0.621867,0 -1.126205,0.50501 -1.126205,1.12691 0,0.6219 0.504338,1.12621 1.126205,1.12621 z"
         inkscape:connector-curvature="0"
         style="fill:#000000;stroke-width:0.03712194" /><path
         id="path66"
         d="m 25.68983,778.75718 c -0.621199,0 -1.126206,0.50501 -1.126206,1.12691 0,0.6219 0.505007,1.12621 1.126206,1.12621 0.622572,0 1.126836,-0.50431 1.126836,-1.12621 0,-0.6219 -0.504264,-1.12691 -1.126836,-1.12691 z"
         inkscape:connector-curvature="0"
         style="fill:#000000;stroke-width:0.03712194" /><path
         id="path68"
         d="m 21.884608,782.59032 c -0.621941,0 -1.126205,0.5043 -1.126205,1.12683 0,0.62124 0.504264,1.12628 1.126205,1.12628 0.622572,0 1.126837,-0.505 1.126837,-1.12628 0,-0.62253 -0.504265,-1.12683 -1.126837,-1.12683 z"
         inkscape:connector-curvature="0"
         style="fill:#000000;stroke-width:0.03712194" /><path
         id="path70"
         d="m 21.884608,777.17849 c 0.622572,0 1.126837,-0.50497 1.126837,-1.12687 0,-0.62261 -0.504265,-1.12691 -1.126837,-1.12691 -0.621941,0 -1.126205,0.5043 -1.126205,1.12691 0,0.6219 0.504264,1.12687 1.126205,1.12687 z"
         inkscape:connector-curvature="0"
         style="fill:#000000;stroke-width:0.03712194" /><path
         id="path72"
         d="m 26.077197,781.46608 -1.892291,-0.10829 c -0.01993,-0.0299 -0.04254,-0.0585 -0.06845,-0.0843 l -1.3894,-1.38936 1.3894,-1.38936 c 0.05178,-0.0518 0.09035,-0.11163 0.118827,-0.17474 l 1.841879,-0.10561 c 0.328232,-0.0193 0.578731,-0.30035 0.560096,-0.62858 -0.01923,-0.32824 -0.299017,-0.5794 -0.628549,-0.56014 l -1.339508,0.0771 v -1.45181 c 0,-0.32886 -0.266461,-0.59536 -0.595324,-0.59536 -0.328233,0 -0.595399,0.26646 -0.595399,0.59536 v 1.86906 c -0.07439,0.0286 -0.144145,0.0724 -0.203874,0.13289 l -1.3894,1.38937 -1.390031,-1.39 c -0.04982,-0.0498 -0.107579,-0.087 -0.16742,-0.11563 L 20.2201,775.6736 c -0.01923,-0.32823 -0.298275,-0.5814 -0.628549,-0.56013 -0.328232,0.0186 -0.579362,0.30035 -0.560096,0.62855 l 0.07707,1.33884 h -1.45169 c -0.328938,0 -0.595325,0.26713 -0.595325,0.59536 0,0.3289 0.266387,0.59532 0.595325,0.59532 h 1.858361 c 0.02862,0.0811 0.0738,0.15814 0.138205,0.22259 l 1.390031,1.38999 -1.390031,1.38999 c -0.04046,0.0405 -0.07172,0.0864 -0.0983,0.13487 h -1.898267 c -0.328938,0 -0.595325,0.26642 -0.595325,0.59532 0,0.32823 0.266387,0.59536 0.595325,0.59536 h 1.451727 l -0.07706,1.33881 c -0.0193,0.32823 0.231864,0.60998 0.560096,0.62855 0.0114,7e-4 0.02328,0.001 0.0346,0.001 0.312938,0 0.575464,-0.24452 0.593951,-0.56147 l 0.102382,-1.77276 c 0.06251,-0.0292 0.121574,-0.0671 0.172691,-0.11827 l 1.390031,-1.38999 1.3894,1.38932 c 0.05973,0.0598 0.129482,0.10368 0.203874,0.1329 v 1.78133 c 0,0.32887 0.267167,0.59533 0.595399,0.59533 0.328863,0 0.595324,-0.26646 0.595324,-0.59533 v -1.4518 l 1.339508,0.0771 c 0.328864,0.0199 0.60932,-0.2319 0.628549,-0.56013 0.01863,-0.3282 -0.231864,-0.60925 -0.560096,-0.62851 z"
         inkscape:connector-curvature="0"
         style="fill:#000000;stroke-width:0.03712194" /></g></g></svg>