<?xml version="1.0" encoding="UTF-8" standalone="no"?>
<svg
   xmlns:dc="http://purl.org/dc/elements/1.1/"
   xmlns:cc="http://creativecommons.org/ns#"
   xmlns:rdf="http://www.w3.org/1999/02/22-rdf-syntax-ns#"
   xmlns:svg="http://www.w3.org/2000/svg"
   xmlns="http://www.w3.org/2000/svg"
   xmlns:sodipodi="http://sodipodi.sourceforge.net/DTD/sodipodi-0.dtd"
   xmlns:inkscape="http://www.inkscape.org/namespaces/inkscape"
   enable-background="new 0 0 50 50"
   height="49"
   id="Layer_1"
   version="1.1"
   viewBox="0 0 61.689999 49"
   width="61.689999"
   xml:space="preserve"
   sodipodi:docname="aux_power.svg"
   inkscape:version="0.92.1 r15371"><metadata
     id="metadata25"><rdf:RDF><cc:Work
         rdf:about=""><dc:format>image/svg+xml</dc:format><dc:type
           rdf:resource="http://purl.org/dc/dcmitype/StillImage" /><dc:title></dc:title></cc:Work></rdf:RDF></metadata><defs
     id="defs23" /><sodipodi:namedview
     pagecolor="#ffffff"
     bordercolor="#666666"
     borderopacity="1"
     objecttolerance="10"
     gridtolerance="10"
     guidetolerance="10"
     inkscape:pageopacity="0"
     inkscape:pageshadow="2"
     inkscape:window-width="1024"
     inkscape:window-height="705"
     id="namedview21"
     showgrid="false"
     inkscape:zoom="9.76"
     inkscape:cx="25"
     inkscape:cy="26.879655"
     inkscape:window-x="-4"
     inkscape:window-y="-4"
     inkscape:window-maximized="1"
     inkscape:current-layer="Layer_1" /><rect
     height="50"
     width="50"
     id="rect10"
     x="0"
     y="-0.99999809"
     style="fill:none" /><g
     id="g31"
     transform="matrix(1.1537323,0,0,1.1537323,11.225416,12.379148)"><polyline
       transform="translate(-7.99615,-13.99615)"
       style="fill:none;stroke:#000000;stroke-width:2;stroke-linejoin:round;stroke-miterlimit:10"
       id="polyline12"
       stroke-miterlimit="10"
       points="30,14 30,10   35,10 35,6 21,6 21,10 26,10 26,14 " /><polyline
       transform="translate(-7.99615,-13.99615)"
       style="fill:none;stroke:#000000;stroke-width:2;stroke-linejoin:round;stroke-miterlimit:10"
       id="polyline14"
       stroke-miterlimit="10"
       points="9,27 5,27 5,21   1,21 1,37 5,37 5,31 9,31 " /><path
       style="fill:none;stroke:#000000;stroke-width:2.00769997;stroke-linecap:round;stroke-linejoin:round;stroke-miterlimit:10"
       inkscape:connector-curvature="0"
       id="path16"
       stroke-miterlimit="10"
       d="m 37.00385,6.00385 v 5 h -3 v -8.157 c 0,-1.017 -0.811,-1.843 -1.809,-1.843 h -20.201 c -0.479,0 -0.941,0.195 -1.28,0.542 l -4.71,5.458 h -3 c -1,0 -2,1 -2,2 v 12 c 0,1.018 1.002,2 2,2 h 3 l 4.712,5.461 c 0.339,0.345 0.799,0.539 1.278,0.539 h 12.855 c 0.479,0 0.939,-0.194 1.278,-0.539 l 7.346,-7.482 c 0.341,-0.346 0.53,-0.814 0.53,-1.303 v -2.676 h 3 v 5 h 4 v -16 z" /><polygon
       transform="translate(-7.99615,-13.99615)"
       id="polygon18"
       points="22,30 27,20 32,20 27,28 32,28 24,39 27,30 " /></g></svg>