<?xml version="1.0" encoding="UTF-8" standalone="no"?>
<!-- Created with Inkscape (http://www.inkscape.org/) -->

<svg
   xmlns:dc="http://purl.org/dc/elements/1.1/"
   xmlns:cc="http://creativecommons.org/ns#"
   xmlns:rdf="http://www.w3.org/1999/02/22-rdf-syntax-ns#"
   xmlns:svg="http://www.w3.org/2000/svg"
   xmlns="http://www.w3.org/2000/svg"
   xmlns:sodipodi="http://sodipodi.sourceforge.net/DTD/sodipodi-0.dtd"
   xmlns:inkscape="http://www.inkscape.org/namespaces/inkscape"
   width="31.872709"
   height="32"
   version="1.1"
   viewBox="0 0 8.4329879 8.4666665"
   id="svg78"
   sodipodi:docname="cell.svg"
   inkscape:version="0.92.1 r15371">
  <sodipodi:namedview
     pagecolor="#ffffff"
     bordercolor="#666666"
     borderopacity="1"
     objecttolerance="10"
     gridtolerance="10"
     guidetolerance="10"
     inkscape:pageopacity="0"
     inkscape:pageshadow="2"
     inkscape:window-width="1024"
     inkscape:window-height="705"
     id="namedview80"
     showgrid="false"
     inkscape:zoom="4.43"
     inkscape:cx="93.209256"
     inkscape:cy="21.550446"
     inkscape:window-x="-4"
     inkscape:window-y="-4"
     inkscape:window-maximized="1"
     inkscape:current-layer="svg78" />
  <defs
     id="defs56">
    <clipPath
       id="clipPath12">
      <path
         d="M 1,1 H 641.93 V 133.88 H 1 Z"
         id="path10"
         inkscape:connector-curvature="0" />
    </clipPath>
    <clipPath
       id="clip2">
      <rect
         width="642"
         height="134"
         id="rect14"
         x="0"
         y="0" />
    </clipPath>
    <g
       clip-path="url(#clip2)"
       id="g17" />
    <clipPath
       id="clipPath21">
      <path
         d="M 1,1 H 211.93 V 211.88 H 1 Z"
         id="path19"
         inkscape:connector-curvature="0" />
    </clipPath>
    <clipPath
       id="clip4">
      <rect
         width="212"
         height="212"
         id="rect23"
         x="0"
         y="0" />
    </clipPath>
    <g
       clip-path="url(#clip4)"
       id="g26" />
    <clipPath
       id="clipPath30">
      <path
         d="M 1,1 H 211.93 V 211.88 H 1 Z"
         id="path28"
         inkscape:connector-curvature="0" />
    </clipPath>
    <clipPath
       id="clip8">
      <rect
         width="212"
         height="212"
         id="rect32"
         x="0"
         y="0" />
    </clipPath>
    <g
       clip-path="url(#clip8)"
       id="g35" />
    <clipPath
       id="clipPath39">
      <path
         d="M 1,1 H 118.93 V 111.88 H 1 Z"
         id="path37"
         inkscape:connector-curvature="0" />
    </clipPath>
    <clipPath
       id="clip12">
      <rect
         width="119"
         height="112"
         id="rect41"
         x="0"
         y="0" />
    </clipPath>
    <g
       clip-path="url(#clip12)"
       id="g44" />
    <linearGradient
       id="linearGradient2628"
       x2="1"
       gradientTransform="matrix(0,-67.566,67.566,0,-9.7242,182.18)"
       gradientUnits="userSpaceOnUse">
      <stop
         stop-color="#20b038"
         offset="0"
         id="stop46" />
      <stop
         stop-color="#60d66a"
         offset="1"
         id="stop48" />
    </linearGradient>
    <linearGradient
       id="linearGradient2630"
       x2="1"
       gradientTransform="matrix(0,-69.988,69.988,0,-9.724,183.4)"
       gradientUnits="userSpaceOnUse">
      <stop
         stop-color="#f9f9f9"
         offset="0"
         id="stop51" />
      <stop
         stop-color="#fff"
         offset="1"
         id="stop53" />
    </linearGradient>
  </defs>
  <metadata
     id="metadata58">
    <rdf:RDF>
      <cc:Work
         rdf:about="">
        <dc:format>image/svg+xml</dc:format>
        <dc:type
           rdf:resource="http://purl.org/dc/dcmitype/StillImage" />
        <dc:title></dc:title>
      </cc:Work>
    </rdf:RDF>
  </metadata>
  <g
     id="g89"
     transform="matrix(0.64906804,0,0,0.64906804,-0.63702529,-0.48605986)">
    <g
       id="g76"
       transform="translate(81.25,-198.87)">
      <g
         id="g74"
         transform="matrix(0.26458,0,0,0.26458,-59.753,156.95)">
        <g
           id="g72"
           transform="matrix(0.61632,0,0,0.61632,-46.994,94.459)">
          <path
             id="path64"
             d="m -25.319,172.29 1.0534,0.62442 c 4.4263,2.6268 9.501,4.016 14.676,4.0188 h 0.011289 c 15.893,0 28.828,-12.932 28.834,-28.826 0.0025,-7.7029 -2.9937,-14.945 -8.4377,-20.394 -5.4444,-5.448 -12.683,-8.4504 -20.386,-8.4536 -15.905,0 -28.84,12.93 -28.846,28.824 -0.0021,5.4465 1.5215,10.751 4.4083,15.34 l 0.68615,1.0908 -2.9136,10.637 z m -19.243,11.101 4.9216,-17.971 c -3.0357,-5.2596 -4.6327,-11.226 -4.6302,-17.338 0.0074,-19.122 15.569,-34.679 34.693,-34.679 9.2798,0.004 17.99,3.6156 24.54,10.171 6.5493,6.5553 10.155,15.269 10.152,24.536 -0.0081,19.121 -15.573,34.681 -34.692,34.681 -0.00141,0 7.056e-4,0 0,0 h -0.014817 c -5.806,-0.002 -11.511,-1.4584 -16.578,-4.222 z"
             inkscape:connector-curvature="0"
             style="fill:#ffffff" />
          <path
             id="path66"
             d="m -43.075,148.1 c -0.0021,5.8999 1.5395,11.66 4.4708,16.738 l -4.7516,17.349 17.754,-4.6553 c 4.8916,2.6656 10.399,4.0728 16.004,4.0746 h 0.014464 c 18.458,0 33.482,-15.02 33.49,-33.48 0.0035,-8.9461 -3.477,-17.357 -9.8005,-23.686 -6.3225,-6.3281 -14.731,-9.815 -23.691,-9.8192 -18.459,0 -33.483,15.018 -33.491,33.479 m 33.492,33.506 h 3.528e-4 -3.528e-4 c -3.527e-4,0 -7.055e-4,0 0,0"
             style="fill:url(#linearGradient2628)"
             inkscape:connector-curvature="0" />
          <path
             id="path68"
             d="m -44.271,148.09 c -0.0021,6.1119 1.5949,12.079 4.6306,17.338 l -4.922,17.97 18.391,-4.8221 c 5.0673,2.7633 10.772,4.2196 16.578,4.222 h 0.014817 c 19.119,0 34.684,-15.56 34.692,-34.681 0.0032,-9.2675 -3.6026,-17.981 -10.152,-24.536 -6.5504,-6.555 -15.26,-10.167 -24.54,-10.171 -19.123,0 -34.685,15.557 -34.693,34.679 m 10.952,16.433 -0.68651,-1.0904 c -2.8868,-4.5896 -4.4104,-9.894 -4.4083,-15.34 0.0063,-15.893 12.941,-28.824 28.846,-28.824 7.7022,0.003 14.941,3.0057 20.386,8.4536 5.4444,5.4483 8.4402,12.691 8.4381,20.393 -0.0071,15.894 -12.942,28.826 -28.835,28.826 h -0.011289 c -5.1749,-0.003 -10.25,-1.3921 -14.676,-4.0185 l -1.0534,-0.62442 -10.914,2.8614 z m 23.741,18.276 h 3.527e-4 -3.527e-4 c -3.528e-4,0 -7.056e-4,0 0,0"
             style="fill:url(#linearGradient2630)"
             inkscape:connector-curvature="0" />
          <path
             id="path70"
             d="m -18.249,133.59 c -0.64946,-1.4436 -1.3328,-1.4725 -1.9505,-1.4979 -0.50553,-0.0215 -1.0837,-0.0201 -1.6612,-0.0201 -0.5782,0 -1.5173,0.21696 -2.3114,1.0844 -0.79481,0.86748 -3.0342,2.9644 -3.0342,7.2291 0,4.2651 3.1066,8.3862 3.5394,8.9651 0.43356,0.57785 5.9969,9.6097 14.807,13.084 7.3226,2.8875 8.8127,2.3132 10.402,2.1685 1.5893,-0.14429 5.1287,-2.0962 5.8508,-4.1204 0.72249,-2.0239 0.72249,-3.7588 0.50588,-4.1211 -0.21661,-0.36125 -0.79481,-0.57821 -1.6616,-1.0114 -0.86713,-0.43356 -5.1287,-2.5308 -5.9231,-2.8201 -0.79481,-0.28893 -1.3727,-0.43322 -1.9509,0.43462 -0.57785,0.86677 -2.238,2.8187 -2.7439,3.3969 -0.50553,0.57926 -1.0114,0.65158 -1.8782,0.21801 -0.86713,-0.43497 -3.659,-1.3494 -6.9709,-4.3021 -2.577,-2.2976 -4.3166,-5.135 -4.8225,-6.0029 -0.50553,-0.86677 -0.05397,-1.3363 0.38065,-1.7685 0.38947,-0.38841 0.86713,-1.0121 1.3007,-1.518 0.4325,-0.50623 0.57679,-0.86748 0.86572,-1.4457 0.28928,-0.57856 0.14464,-1.0848 -0.07197,-1.5184 -0.21696,-0.43356 -1.9015,-4.7202 -2.6723,-6.4343"
             inkscape:connector-curvature="0"
             style="fill:#ffffff;fill-rule:evenodd" />
        </g>
      </g>
    </g>
  </g>
</svg>
