<?xml version="1.0" encoding="UTF-8" standalone="no"?>
<!-- Created with Inkscape (http://www.inkscape.org/) -->

<svg
   xmlns:dc="http://purl.org/dc/elements/1.1/"
   xmlns:cc="http://creativecommons.org/ns#"
   xmlns:rdf="http://www.w3.org/1999/02/22-rdf-syntax-ns#"
   xmlns:svg="http://www.w3.org/2000/svg"
   xmlns="http://www.w3.org/2000/svg"
   xmlns:sodipodi="http://sodipodi.sourceforge.net/DTD/sodipodi-0.dtd"
   xmlns:inkscape="http://www.inkscape.org/namespaces/inkscape"
   width="27.112383mm"
   height="2.6458333mm"
   viewBox="0 0 27.112383 2.6458332"
   version="1.1"
   id="svg21888"
   inkscape:version="0.92.1 r15371"
   sodipodi:docname="decoration_left.svg">
  <defs
     id="defs21882" />
  <sodipodi:namedview
     id="base"
     pagecolor="#ffffff"
     bordercolor="#666666"
     borderopacity="1.0"
     inkscape:pageopacity="0.0"
     inkscape:pageshadow="2"
     inkscape:zoom="1.979899"
     inkscape:cx="181.78676"
     inkscape:cy="5.4406998"
     inkscape:document-units="mm"
     inkscape:current-layer="layer1"
     showgrid="false"
     inkscape:window-width="1024"
     inkscape:window-height="705"
     inkscape:window-x="-4"
     inkscape:window-y="-4"
     inkscape:window-maximized="1" />
  <metadata
     id="metadata21885">
    <rdf:RDF>
      <cc:Work
         rdf:about="">
        <dc:format>image/svg+xml</dc:format>
        <dc:type
           rdf:resource="http://purl.org/dc/dcmitype/StillImage" />
        <dc:title />
      </cc:Work>
    </rdf:RDF>
  </metadata>
  <g
     inkscape:label="Layer 1"
     inkscape:groupmode="layer"
     id="layer1"
     transform="translate(-57.920298,-186.85288)">
    <g
       id="g21910"
       transform="matrix(0.46128965,0,0,0.46129758,82.984019,40.36015)">
      <path
         inkscape:connector-curvature="0"
         id="path21268"
         style="fill:#000000;fill-opacity:1;fill-rule:nonzero;stroke:none;stroke-width:0.35277775"
         d="m -8.284386,323.17783 c 1.29399,-0.381 2.256366,-1.32363 3.184525,-2.23238 -0.08608,0.46602 -0.03493,0.94509 0.243416,1.44815 0.528463,0.9525 1.96709,0.99589 2.220738,-0.0261 0.100542,-0.40499 -0.400404,-0.68827 -0.678746,-0.5648 -0.311502,0.13829 -0.454025,0.18168 -0.600779,-0.005 -0.178506,-0.22684 -0.08361,-0.50412 0.01871,-0.75071 0.589492,-1.43546 1.776238,-2.33963 3.41806504,-2.40207 0.710494,-0.0268 1.73495996,0.26882 2.34385396,0.62054 -2.86278896,1.68945 0.10019,4.53319 1.904648,3.09915 1.296806,-1.03011 0.504469,-2.62784 -0.607135,-3.40783 -2.44792296,-1.71838 -5.184773,-1.77271 -7.599889,-0.55316 -1.192038,0.60255 -2.505782,1.92829 -3.928182,1.97274 -0.315383,0.01 -0.646993,-0.0113 -0.911577,-0.22755 -0.457906,-0.37394 0.211667,-0.53586 0.238477,-0.60289 0.442383,-1.07139 -1.125715,-1.72262 -1.954742,-1.3201 -0.863248,0.4184 -1.406173,1.24354 -1.490839,2.18899 -0.190146,2.1015 2.409473,3.29 4.199466,2.76295" />
      <path
         inkscape:connector-curvature="0"
         id="path21276"
         style="fill:#000000;fill-opacity:1;fill-rule:nonzero;stroke:none;stroke-width:0.35277775"
         d="m -10.762791,319.95771 h -42.811698 c -0.419453,0 -0.759531,0.21801 -0.759531,0.48718 0,0.26917 0.340078,0.48719 0.759531,0.48719 h 43.082631 c -0.219427,-0.31468 -0.297743,-0.65158 -0.270933,-0.97437" />
    </g>
  </g>
</svg>
