<?xml version="1.0" encoding="UTF-8" standalone="no"?>
<svg
   xmlns:dc="http://purl.org/dc/elements/1.1/"
   xmlns:cc="http://creativecommons.org/ns#"
   xmlns:rdf="http://www.w3.org/1999/02/22-rdf-syntax-ns#"
   xmlns:svg="http://www.w3.org/2000/svg"
   xmlns="http://www.w3.org/2000/svg"
   xmlns:sodipodi="http://sodipodi.sourceforge.net/DTD/sodipodi-0.dtd"
   xmlns:inkscape="http://www.inkscape.org/namespaces/inkscape"
   enable-background="new 0 0 24 24"
   height="49"
   id="Layer_1"
   version="1.1"
   viewBox="0 0 70.83235 49"
   width="70.832352"
   xml:space="preserve"
   sodipodi:docname="if_food-drink-02_809029.svg"
   inkscape:version="0.92.1 r15371"><metadata
     id="metadata21"><rdf:RDF><cc:Work
         rdf:about=""><dc:format>image/svg+xml</dc:format><dc:type
           rdf:resource="http://purl.org/dc/dcmitype/StillImage" /><dc:title></dc:title></cc:Work></rdf:RDF></metadata><defs
     id="defs19" /><sodipodi:namedview
     pagecolor="#ffffff"
     bordercolor="#666666"
     borderopacity="1"
     objecttolerance="10"
     gridtolerance="10"
     guidetolerance="10"
     inkscape:pageopacity="0"
     inkscape:pageshadow="2"
     inkscape:window-width="768"
     inkscape:window-height="1303"
     id="namedview17"
     showgrid="false"
     inkscape:zoom="4.6403883"
     inkscape:cx="17.599762"
     inkscape:cy="-39.362354"
     inkscape:window-x="-4"
     inkscape:window-y="-4"
     inkscape:window-maximized="1"
     inkscape:current-layer="Layer_1" /><g
     id="g92"
     transform="matrix(1.875,0,0,1.875,2,2)"><g
       transform="translate(5.7123991)"
       id="g14"><path
         inkscape:connector-curvature="0"
         id="path10"
         d="M 12,0 C 5.4,0 0,5.4 0,12 0,18.6 5.4,24 12,24 18.6,24 24,18.6 24,12 24,5.4 18.6,0 12,0 Z m 0,22 C 6.5,22 2,17.5 2,12 2,6.5 6.5,2 12,2 c 5.5,0 10,4.5 10,10 0,5.5 -4.5,10 -10,10 z" /><path
         inkscape:connector-curvature="0"
         id="path12"
         d="m 12,5 c -3.9,0 -7,3.1 -7,7 0,3.9 3.1,7 7,7 3.9,0 7,-3.1 7,-7 0,-3.9 -3.1,-7 -7,-7 z m 0,13 C 8.7,18 6,15.3 6,12 6,8.7 8.7,6 12,6 c 3.3,0 6,2.7 6,6 0,3.3 -2.7,6 -6,6 z" /></g><g
       id="meanicons_x5F_41"
       transform="matrix(0.03867922,0,0,0.03867922,-0.01333079,2.3311518)"><g
         id="g35"><path
           id="path33"
           d="M 115.999,118.697 109.634,32.744 V 7.579 c 0,-4.724 -3.95,-8.58 -8.868,-8.58 -4.872,0 -8.847,3.856 -8.847,8.58 v 108.924 c -1.471,2.392 -3.928,4.074 -6.941,4.121 -4.752,0.146 -8.652,-3.612 -8.748,-8.36 L 74.857,54.198 V 7.58 c 0,-4.723 -3.979,-8.58 -8.85,-8.58 -4.865,0 -8.822,3.857 -8.822,8.58 v 109.861 c -1.516,2.289 -3.953,3.959 -6.893,4.002 -4.723,0.096 -8.678,-3.613 -8.773,-8.39 L 38.845,50.288 V 7.578 c 0,-4.723 -3.979,-8.58 -8.846,-8.58 -4.891,0 -8.87,3.857 -8.87,8.58 V 20.925 L 9.174,118.718 c -0.438,18.304 14.391,33.724 37.501,38.205 -4.863,126.064 -21.472,236.138 -43.624,303.699 -0.94,2.022 -1.592,4.052 -2.072,6.167 0,0.032 -0.049,0.083 -0.049,0.146 -0.34,1.547 -0.553,3.187 -0.578,4.82 -0.482,20.293 22.803,36.777 52.012,36.757 29.213,0 53.319,-16.506 53.8,-36.853 0,-1.61 -0.146,-3.229 -0.41,-4.789 0,-0.051 -0.022,-0.084 -0.022,-0.178 -0.361,-2.072 -0.963,-4.146 -1.787,-6.123 C 85.025,393.03 73.67,282.985 74.783,156.877 c 23.333,-4.481 40.804,-19.856 41.216,-38.18 z"
           inkscape:connector-curvature="0" /></g></g><path
       id="path31"
       d="m 35.622435,20.633149 h 9.28e-4 c -9.28e-4,-0.0017 -0.0018,-0.0038 -0.0018,-0.0055 -0.01694,-0.068 -0.04197,-0.134565 -0.07655,-0.19943 -0.551912,-1.469532 -0.997419,-3.561381 -1.26976,-6.015384 -0.175216,-1.702195 -0.205038,-3.656347 -0.231263,-5.7345818 -0.02982,-2.290467 0.04676,-4.42908 0.206161,-6.250794 -0.126017,-0.07094 -0.252769,-0.10629 -0.383234,-0.10629 -1.331455,0.0082 -2.358659,3.876238 -2.297198,8.6414008 0.0073,0.597208 0.0328,1.180993 0.07179,1.744434 0.661801,0.188406 1.113923,0.56638 1.120614,1.00477 l 0.0045,0.456879 c 0.0029,0.002 0.0056,0.002 0.0066,0.002 -0.201402,2.5654 -0.601191,4.756461 -1.132643,6.283478 -0.03361,0.06351 -0.05686,0.131471 -0.07183,0.19974 0,0.0014 -8.12e-4,0.0038 -8.12e-4,0.0038 h 8.03e-4 c -0.01037,0.05206 -0.01853,0.104087 -0.01768,0.156613 0.0073,0.661686 0.932363,1.193293 2.062144,1.185634 1.129936,-0.0073 2.038898,-0.549245 2.030659,-1.209886 7.7e-5,-0.05403 -0.0094,-0.106793 -0.02143,-0.156883 z"
       inkscape:connector-curvature="0"
       style="stroke-width:0.03867922" /></g></svg>