<?xml version="1.0" encoding="UTF-8" standalone="no"?>
<svg
   xmlns:dc="http://purl.org/dc/elements/1.1/"
   xmlns:cc="http://creativecommons.org/ns#"
   xmlns:rdf="http://www.w3.org/1999/02/22-rdf-syntax-ns#"
   xmlns:svg="http://www.w3.org/2000/svg"
   xmlns="http://www.w3.org/2000/svg"
   xmlns:sodipodi="http://sodipodi.sourceforge.net/DTD/sodipodi-0.dtd"
   xmlns:inkscape="http://www.inkscape.org/namespaces/inkscape"
   version="1.1"
   x="0px"
   y="0px"
   viewBox="0 0 38.285709 34"
   enable-background="new 0 0 100 87.5"
   xml:space="preserve"
   id="svg1491"
   sodipodi:docname="games.svg"
   width="38.285709"
   height="34"
   inkscape:version="0.92.1 r15371"><metadata
     id="metadata1497"><rdf:RDF><cc:Work
         rdf:about=""><dc:format>image/svg+xml</dc:format><dc:type
           rdf:resource="http://purl.org/dc/dcmitype/StillImage" /><dc:title></dc:title></cc:Work></rdf:RDF></metadata><defs
     id="defs1495" /><sodipodi:namedview
     pagecolor="#ffffff"
     bordercolor="#666666"
     borderopacity="1"
     objecttolerance="10"
     gridtolerance="10"
     guidetolerance="10"
     inkscape:pageopacity="0"
     inkscape:pageshadow="2"
     inkscape:window-width="1024"
     inkscape:window-height="705"
     id="namedview1493"
     showgrid="false"
     inkscape:zoom="5.5771429"
     inkscape:cx="50"
     inkscape:cy="27.775427"
     inkscape:window-x="-4"
     inkscape:window-y="-4"
     inkscape:window-maximized="1"
     inkscape:current-layer="svg1491" /><g
     id="g1503"
     transform="matrix(0.34285714,0,0,0.34285714,2,2.0000002)"><path
       id="path1483"
       d="m 0,39.156 c 0,0.091 0.01,0.178 0.013,0.268 V 38.888 C 0.01,38.977 0,39.065 0,39.156 Z"
       inkscape:connector-curvature="0" /><circle
       id="circle1485"
       r="3.471"
       cy="30.962999"
       cx="30.124001" /><path
       id="path1487"
       d="m 68.411,48.263 c 1.866,-0.438 3.023,-2.306 2.586,-4.174 -0.436,-1.864 -2.305,-3.023 -4.17,-2.587 -1.866,0.438 -3.026,2.307 -2.589,4.171 0.438,1.867 2.305,3.027 4.173,2.59 z"
       inkscape:connector-curvature="0" /><path
       id="path1489"
       d="m 90.277,73.61 c -4.59,0 -10.091,-5.177 -15.914,-10.658 -0.636,-0.598 -1.28,-1.203 -1.93,-1.811 l -1.98,-8.454 c -0.469,-2.007 -2.476,-3.249 -4.478,-2.78 -1.62,0.379 -2.725,1.761 -2.851,3.335 C 57.318,49.003 50.789,45.833 43.055,45.833 V 12.5 L 20.833,0 0,12.5 V 45.833 56.944 87.5 h 4.167 v -5.556 h 13.89 V 87.5 h 4.167 V 81.944 H 38.891 V 87.5 h 4.167 V 56.944 54.167 c 9.816,0 17.838,7.551 25.596,14.853 7.062,6.647 13.73,12.925 21.625,12.925 h 1.39 V 87.5 h 4.166 V 81.944 H 100 V 73.61 Z M 18.056,79.167 H 4.167 V 73.61 h 13.89 v 5.557 z m 0,-8.334 H 4.167 v -5.556 h 13.89 v 5.556 z m 0,-8.333 H 4.167 v -5.556 h 13.89 V 62.5 Z M 38.889,45.833 h -4.276 l -1.655,-7.065 c -0.469,-2.006 -2.474,-3.249 -4.478,-2.778 -2.005,0.469 -3.25,2.474 -2.78,4.479 l 1.256,5.364 H 4.167 V 15.277 H 38.89 v 30.556 z"
       inkscape:connector-curvature="0" /></g></svg>