<?xml version="1.0" encoding="UTF-8" standalone="no"?>
<svg
   xmlns:dc="http://purl.org/dc/elements/1.1/"
   xmlns:cc="http://creativecommons.org/ns#"
   xmlns:rdf="http://www.w3.org/1999/02/22-rdf-syntax-ns#"
   xmlns:svg="http://www.w3.org/2000/svg"
   xmlns="http://www.w3.org/2000/svg"
   xmlns:sodipodi="http://sodipodi.sourceforge.net/DTD/sodipodi-0.dtd"
   xmlns:inkscape="http://www.inkscape.org/namespaces/inkscape"
   enable-background="new 0 0 800 800"
   height="49"
   id="Layer_1"
   version="1.1"
   viewBox="0 0 44.310001 49"
   width="44.310001"
   xml:space="preserve"
   sodipodi:docname="heating.svg"
   inkscape:version="0.92.1 r15371"><metadata
     id="metadata176"><rdf:RDF><cc:Work
         rdf:about=""><dc:format>image/svg+xml</dc:format><dc:type
           rdf:resource="http://purl.org/dc/dcmitype/StillImage" /><dc:title></dc:title></cc:Work></rdf:RDF></metadata><defs
     id="defs174" /><sodipodi:namedview
     pagecolor="#ffffff"
     bordercolor="#666666"
     borderopacity="1"
     objecttolerance="10"
     gridtolerance="10"
     guidetolerance="10"
     inkscape:pageopacity="0"
     inkscape:pageshadow="2"
     inkscape:window-width="1024"
     inkscape:window-height="705"
     id="namedview172"
     showgrid="false"
     inkscape:zoom="8.714286"
     inkscape:cx="33.08112"
     inkscape:cy="20.322258"
     inkscape:window-x="-4"
     inkscape:window-y="-4"
     inkscape:window-maximized="1"
     inkscape:current-layer="Layer_1" /><g
     id="g201"
     transform="matrix(0.05989865,0,0,0.05989865,-1.8044446,0.5405106)"><path
       d="M 345.714,431.681 V 77.083 c 0,-29.061 -23.64,-52.717 -52.699,-52.717 h -87.892 c -29.06,0 -52.717,23.657 -52.717,52.717 v 354.598 c -55.07,33.641 -88.891,93.473 -88.891,158.419 0,102.297 83.239,185.535 185.554,185.535 102.314,0 185.553,-83.238 185.553,-185.535 0,-64.947 -33.818,-124.779 -88.908,-158.419 z m -96.645,312.007 c -84.701,0 -153.605,-68.905 -153.605,-153.588 0,-56.426 30.859,-108.216 80.529,-135.136 5.152,-2.8 8.361,-8.183 8.361,-14.049 V 77.083 c 0,-11.447 9.325,-20.77 20.77,-20.77 h 87.892 c 11.446,0 20.751,9.323 20.751,20.77 v 363.833 c 0,5.866 3.209,11.249 8.362,14.049 49.687,26.92 80.547,78.693 80.547,135.136 -10e-4,84.681 -68.906,153.587 -153.607,153.587 z"
       id="path163"
       style="fill:#000000"
       inkscape:connector-curvature="0" /><path
       d="M 293.086,493.918 V 117.605 c 0,-27.277 -19.753,-49.473 -44.017,-49.473 -24.264,0 -44.018,22.196 -44.018,49.473 v 375.011 c -39.292,16.83 -64.947,55.16 -64.947,98.803 0,59.331 48.26,107.591 107.592,107.591 59.332,0 107.61,-48.26 107.61,-107.591 0,-42.182 -24.585,-80.013 -62.22,-97.501 z m 3.423,155.192 c -0.321,-0.018 -0.624,-0.09 -0.944,-0.09 h -92.991 c -1.159,0 -2.3,0.143 -3.388,0.375 -6.863,-5.759 -12.658,-12.729 -17.133,-20.537 h 131.304 c -4.422,7.702 -10.109,14.547 -16.848,20.252 z m 26.403,-52.2 H 175.225 c -0.98,0 -1.943,0.106 -2.888,0.285 -0.143,-1.907 -0.286,-3.833 -0.286,-5.776 0,-5.081 0.642,-10.02 1.604,-14.851 0.517,0.053 1.034,0.161 1.569,0.161 h 146.528 c 0.945,4.795 1.605,9.661 1.605,14.689 0,1.854 -0.161,3.672 -0.285,5.508 -0.053,10e-4 -0.107,-0.016 -0.16,-0.016 z M 236.999,492.67 v -20.164 h 24.139 v 20.164 z m 24.139,-104.24 h -24.139 v -20.164 h 24.139 z m -24.139,31.947 h 24.139 v 20.182 h -24.139 z m 24.139,-84.058 h -24.139 v -20.164 h 24.139 z M 249.069,100.08 c 6.436,0 12.069,8.184 12.069,17.525 V 284.207 H 236.999 V 117.605 c 0,-9.342 5.652,-17.525 12.07,-17.525 z M 212.45,524.582 c 0.089,0.018 0.178,0.035 0.249,0.035 h 70.385 c 9.449,4.992 17.471,11.981 23.925,20.164 H 188.168 c 6.49,-8.272 14.708,-15.172 24.282,-20.199 z"
       id="path165"
       style="fill:#000000"
       inkscape:connector-curvature="0" /><path
       d="m 706.41,337.442 h 14.102 c 8.825,0 15.973,-7.15 15.973,-15.974 0,-8.807 -7.147,-15.974 -15.973,-15.974 H 706.41 678.902 c -0.713,-5.331 -1.785,-10.555 -3.192,-15.635 l 38.722,-15.636 c 8.183,-3.298 12.143,-12.604 8.844,-20.788 -3.317,-8.183 -12.64,-12.14 -20.788,-8.842 l -39.347,15.885 c -3.065,-5.134 -6.4,-10.073 -10.179,-14.672 l 30.29,-30.272 c 6.239,-6.24 6.221,-16.366 -0.018,-22.606 -6.239,-6.221 -16.35,-6.221 -22.589,0.018 l -31.128,31.146 c -4.063,-2.888 -8.289,-5.563 -12.712,-7.916 l 17.437,-41.058 c 3.458,-8.112 -0.338,-17.489 -8.45,-20.948 -8.13,-3.441 -17.507,0.338 -20.949,8.469 l -18.022,42.43 c -5.261,-1.176 -10.644,-1.997 -16.134,-2.46 V 169.77 155.686 c 0,-8.825 -7.149,-15.973 -15.975,-15.973 -8.808,0 -15.975,7.148 -15.975,15.973 v 14.084 34.461 c -4.366,0.803 -8.683,1.819 -12.871,3.103 l -18.397,-45.587 c -3.299,-8.183 -12.642,-12.14 -20.788,-8.824 -8.183,3.298 -12.143,12.604 -8.844,20.787 l 19.006,47.102 c -4.084,2.603 -8.06,5.349 -11.785,8.415 l -36.279,-36.28 c -6.239,-6.239 -16.35,-6.239 -22.589,0 -6.239,6.24 -6.239,16.348 0,22.588 l 37.153,37.153 c -2.282,3.191 -4.384,6.507 -6.346,9.93 l -48.635,-20.68 c -8.13,-3.441 -17.508,0.338 -20.948,8.469 -3.442,8.111 0.338,17.489 8.467,20.947 l 49.241,20.913 c -1.106,4.332 -1.962,8.736 -2.566,13.229 h -39.544 -14.084 c -8.825,0 -15.974,7.167 -15.974,15.974 0,8.824 7.148,15.974 15.974,15.974 h 14.084 39.544 c 0.516,3.815 1.194,7.576 2.051,11.267 l -49.617,20.021 c -8.166,3.299 -12.124,12.604 -8.825,20.788 2.513,6.222 8.487,10.001 14.814,10.001 1.998,0 4.013,-0.375 5.974,-1.159 l 48.974,-19.789 c 2.228,4.065 4.74,7.934 7.415,11.695 l -37.153,37.154 c -6.239,6.239 -6.239,16.349 0,22.588 3.119,3.119 7.202,4.671 11.286,4.671 4.101,0 8.183,-1.552 11.303,-4.671 l 36.279,-36.281 c 3.191,2.622 6.543,5.047 10.001,7.328 l -19.859,46.763 c -3.458,8.13 0.32,17.508 8.45,20.948 2.032,0.873 4.155,1.283 6.239,1.283 6.205,0 12.124,-3.654 14.708,-9.733 l 19.273,-45.354 c 4.831,1.569 9.804,2.816 14.867,3.762 v 34.443 14.102 c 0,8.825 7.167,15.975 15.975,15.975 8.825,0 15.975,-7.149 15.975,-15.975 v -14.102 -32.821 c 4.74,-0.41 9.447,-0.979 14.011,-1.926 l 17.275,42.77 c 2.498,6.222 8.487,10.001 14.814,10.001 1.998,0 4.013,-0.373 5.974,-1.158 8.183,-3.299 12.141,-12.604 8.844,-20.788 l -16.758,-41.503 c 5.115,-2.62 10.001,-5.58 14.671,-8.879 l 31.128,31.146 c 3.119,3.119 7.22,4.671 11.302,4.671 4.083,0 8.183,-1.552 11.305,-4.671 6.239,-6.239 6.239,-16.349 0,-22.588 l -30.271,-30.29 c 3.297,-4.012 6.239,-8.309 9.002,-12.729 l 39.098,16.597 c 2.031,0.874 4.152,1.284 6.221,1.284 6.223,0 12.142,-3.655 14.726,-9.734 3.442,-8.13 -0.338,-17.507 -8.469,-20.948 L 675.141,355.29 c 1.712,-5.776 2.94,-11.748 3.763,-17.845 h 27.506 z m -145.69,71.454 c -48.206,0 -87.41,-39.222 -87.41,-87.428 0,-48.189 39.204,-87.411 87.41,-87.411 48.208,0 87.43,39.222 87.43,87.411 -10e-4,48.207 -39.222,87.428 -87.43,87.428 z"
       id="path167"
       style="fill:#000000"
       inkscape:connector-curvature="0" /></g></svg>