<?xml version="1.0" encoding="UTF-8" standalone="no"?>
<svg
   xmlns:dc="http://purl.org/dc/elements/1.1/"
   xmlns:cc="http://creativecommons.org/ns#"
   xmlns:rdf="http://www.w3.org/1999/02/22-rdf-syntax-ns#"
   xmlns:svg="http://www.w3.org/2000/svg"
   xmlns="http://www.w3.org/2000/svg"
   xmlns:sodipodi="http://sodipodi.sourceforge.net/DTD/sodipodi-0.dtd"
   xmlns:inkscape="http://www.inkscape.org/namespaces/inkscape"
   enable-background="new 0 0 32 32"
   height="34"
   id="svg2"
   version="1.1"
   viewBox="0 0 33.990002 34"
   width="33.990002"
   xml:space="preserve"
   sodipodi:docname="indoors.svg"
   inkscape:version="0.92.1 r15371"><metadata
     id="metadata276"><rdf:RDF><cc:Work
         rdf:about=""><dc:format>image/svg+xml</dc:format><dc:type
           rdf:resource="http://purl.org/dc/dcmitype/StillImage" /><dc:title></dc:title></cc:Work></rdf:RDF></metadata><defs
     id="defs274" /><sodipodi:namedview
     pagecolor="#ffffff"
     bordercolor="#666666"
     borderopacity="1"
     objecttolerance="10"
     gridtolerance="10"
     guidetolerance="10"
     inkscape:pageopacity="0"
     inkscape:pageshadow="2"
     inkscape:window-width="1024"
     inkscape:window-height="705"
     id="namedview272"
     showgrid="false"
     inkscape:snap-global="true"
     inkscape:zoom="7.625"
     inkscape:cx="4.7310571"
     inkscape:cy="14.649434"
     inkscape:window-x="-4"
     inkscape:window-y="-4"
     inkscape:window-maximized="1"
     inkscape:current-layer="svg2" /><g
     id="background"
     transform="translate(0,2)"><rect
       height="32"
       width="32"
       id="rect263"
       x="0"
       y="0"
       style="fill:none" /></g><g
     id="g292"
     transform="matrix(1.071062,0,0,1.071062,-0.14212407,-0.13186011)"><g
       transform="matrix(0.78571429,0,0,0.78571429,3.4285714,6.4285714)"
       id="group_x5F_full"><g
         id="g268"><path
           inkscape:connector-curvature="0"
           id="path266"
           d="M 8,20 C 8,18 8,10 8,10 8,10 8.005,9.55 8.239,9 6.16,9 4,9 4,9 4,9 2,9 2,11 v 7 c 0,2 2,2 2,2 v 10 h 6 v -8 c 0,0 -2,0 -2,-2 z M 8,8 C 8.52,8 9.001,7.856 9.427,7.624 9.486,7.588 9.552,7.556 9.615,7.521 10.446,6.988 11,6.061 11,5 11,3.343 9.657,2 8,2 6.343,2 5,3.343 5,5 5,6.657 6.343,8 8,8 Z M 28,9 H 23.762 C 23.995,9.55 24,10 24,10 c 0,0 0,8 0,10 0,2 -2,2 -2,2 v 8 h 6 V 20 c 0,0 2,0 2,-2 0,-2 0,-7 0,-7 0,0 0,-2 -2,-2 z M 22.38,7.519 c 0.065,0.035 0.134,0.068 0.194,0.105 C 23,7.856 23.48,8 24,8 25.657,8 27,6.657 27,5 27,3.343 25.657,2 24,2 c -1.657,0 -3,1.343 -3,3 0,1.059 0.552,1.985 1.38,2.519 z M 16,8 c 1.657,0 3,-1.343 3,-3 0,-1.657 -1.343,-3 -3,-3 -1.657,0 -3,1.343 -3,3 0,1.657 1.343,3 3,3 z m 6,3 c 0,0 0,-2 -2,-2 -0.5,0 -8,0 -8,0 0,0 -2,0 -2,2 v 7 c 0,2 2,2 2,2 v 10 h 8 V 20 c 0,0 2,0 2,-2 0,-2 0,-7 0,-7 z" /></g></g><path
       sodipodi:nodetypes="ccccccccccc"
       style="stroke-width:0.1169045"
       inkscape:connector-curvature="0"
       d="m 30,5.951611 -13.99932,-3.960725 -1.16e-4,-4.68e-4 -5.08e-4,2.34e-4 -5.07e-4,-2.34e-4 -1.17e-4,4.68e-4 L 2,5.951611 2.5491009,8.224 16.000132,4.418408 29.451166,8.224 Z"
       id="path278" /></g></svg>