<?xml version="1.0" encoding="UTF-8" standalone="no"?>
<svg
   xmlns:dc="http://purl.org/dc/elements/1.1/"
   xmlns:cc="http://creativecommons.org/ns#"
   xmlns:rdf="http://www.w3.org/1999/02/22-rdf-syntax-ns#"
   xmlns:svg="http://www.w3.org/2000/svg"
   xmlns="http://www.w3.org/2000/svg"
   xmlns:sodipodi="http://sodipodi.sourceforge.net/DTD/sodipodi-0.dtd"
   xmlns:inkscape="http://www.inkscape.org/namespaces/inkscape"
   height="34"
   version="1.1"
   viewBox="0 0 42.826001 34"
   width="42.826"
   id="svg115"
   sodipodi:docname="local.svg"
   inkscape:version="0.92.1 r15371">
  <metadata
     id="metadata119">
    <rdf:RDF>
      <cc:Work
         rdf:about="">
        <dc:format>image/svg+xml</dc:format>
        <dc:type
           rdf:resource="http://purl.org/dc/dcmitype/StillImage" />
        <dc:title></dc:title>
      </cc:Work>
    </rdf:RDF>
  </metadata>
  <sodipodi:namedview
     pagecolor="#ffffff"
     bordercolor="#666666"
     borderopacity="1"
     objecttolerance="10"
     gridtolerance="10"
     guidetolerance="10"
     inkscape:pageopacity="0"
     inkscape:pageshadow="2"
     inkscape:window-width="1024"
     inkscape:window-height="705"
     id="namedview117"
     showgrid="false"
     inkscape:zoom="9.8333333"
     inkscape:cx="11.001228"
     inkscape:cy="8.9999998"
     inkscape:window-x="-4"
     inkscape:window-y="-4"
     inkscape:window-maximized="1"
     inkscape:current-layer="svg115" />
  <desc
     id="desc107" />
  <defs
     id="defs109" />
  <g
     id="miu"
     transform="matrix(1.7647059,0,0,1.7647059,0.23746363,-5.0588235)"
     style="fill:none;fill-rule:evenodd;stroke:none;stroke-width:1">
    <g
       id="Artboard-1"
       transform="translate(-647,-335)">
      <g
         id="slice"
         transform="translate(215,119)" />
      <path
         d="M 648.0089,347.5 C 648.13642,355 649,355 649,355 h 1 v -1 h -0.39999 c 0,0 -0.60001,0.31034 -0.60001,-6.5 0,-6.81034 0.60001,-6.5 0.60001,-6.5 H 650 v -1 h -1 c 0,0 -1.11862,0 -0.9911,7.5 z m 21.9911,0 c 0,7.5 -1.25053,7.5 -1.25053,7.5 H 658 v -1 h 10.21918 c 0,0 0.80499,0 0.80499,-6.5 0,-6.5 -0.80499,-6.5 -0.80499,-6.5 H 658 v -1 h 10.74947 c 0,0 1.25053,0 1.25053,7.5 z m -4,5.5 c 0.55228,0 1,-0.44772 1,-1 0,-0.55228 -0.44772,-1 -1,-1 -0.55228,0 -1,0.44772 -1,1 0,0.55228 0.44772,1 1,1 z m -3,0 c 0.55228,0 1,-0.44772 1,-1 0,-0.55228 -0.44772,-1 -1,-1 -0.55228,0 -1,0.44772 -1,1 0,0.55228 0.44772,1 1,1 z m -3,0 c 0.55228,0 1,-0.44772 1,-1 0,-0.55228 -0.44772,-1 -1,-1 -0.55228,0 -1,0.44772 -1,1 0,0.55228 0.44772,1 1,1 z m 6,-3 c 0.55228,0 1,-0.44772 1,-1 0,-0.55228 -0.44772,-1 -1,-1 -0.55228,0 -1,0.44772 -1,1 0,0.55228 0.44772,1 1,1 z m -3,0 c 0.55228,0 1,-0.44772 1,-1 0,-0.55228 -0.44772,-1 -1,-1 -0.55228,0 -1,0.44772 -1,1 0,0.55228 0.44772,1 1,1 z m -3,0 c 0.55228,0 1,-0.44772 1,-1 0,-0.55228 -0.44772,-1 -1,-1 -0.55228,0 -1,0.44772 -1,1 0,0.55228 0.44772,1 1,1 z m 7,-4 c 0,-0.55228 -0.44772,-1 -1,-1 -0.55228,0 -1,0.44772 -1,1 0,0.55228 0.44772,1 1,1 0.55228,0 1,-0.44772 1,-1 z m -4,1 c 0.55228,0 1,-0.44772 1,-1 0,-0.55228 -0.44772,-1 -1,-1 -0.55228,0 -1,0.44772 -1,1 0,0.55228 0.44772,1 1,1 z m -3,0 c 0.55228,0 1,-0.44772 1,-1 0,-0.55228 -0.44772,-1 -1,-1 -0.55228,0 -1,0.44772 -1,1 0,0.55228 0.44772,1 1,1 z m -0.83291,-5 C 659.07481,342 659,342.06884 659,342.15362 v 1.69276 c 0,0.0848 0.0741,0.15362 0.16709,0.15362 h 7.66582 C 666.92521,344 667,343.9312 667,343.84638 v -1.69276 C 667,342.06878 666.92591,342 666.83291,342 Z m -6.52003,-3 c 0,0 -1.64706,0 -1.64706,1.37547 v 14.24906 C 651,356 652.64706,356 652.64706,356 h 2.70588 c 0,0 1.64706,0 1.64706,-1.37547 V 340.37547 C 657,339 655.35294,339 655.35294,339 Z m 0.14135,1 c 0,0 -0.78841,0 -0.78841,0.76389 v 13.47222 C 652,355 652.78841,355 652.78841,355 h 2.42318 c 0,0 0.78841,0 0.78841,-0.76389 V 340.76389 C 656,340 655.21159,340 655.21159,340 Z"
         id="business-telephone-office-outline-stroke"
         inkscape:connector-curvature="0"
         style="fill:#000000" />
    </g>
  </g>
</svg>
