<?xml version="1.0" encoding="UTF-8" standalone="no"?>
<svg
   xmlns:dc="http://purl.org/dc/elements/1.1/"
   xmlns:cc="http://creativecommons.org/ns#"
   xmlns:rdf="http://www.w3.org/1999/02/22-rdf-syntax-ns#"
   xmlns:svg="http://www.w3.org/2000/svg"
   xmlns="http://www.w3.org/2000/svg"
   xmlns:sodipodi="http://sodipodi.sourceforge.net/DTD/sodipodi-0.dtd"
   xmlns:inkscape="http://www.inkscape.org/namespaces/inkscape"
   enable-background="new 0 0 32 32"
   height="32"
   id="svg2"
   version="1.1"
   viewBox="0 0 16 32"
   width="16"
   xml:space="preserve"
   sodipodi:docname="min.svg"
   inkscape:version="0.92.1 r15371"><metadata
     id="metadata315"><rdf:RDF><cc:Work
         rdf:about=""><dc:format>image/svg+xml</dc:format><dc:type
           rdf:resource="http://purl.org/dc/dcmitype/StillImage" /><dc:title></dc:title></cc:Work></rdf:RDF></metadata><defs
     id="defs313" /><sodipodi:namedview
     pagecolor="#ffffff"
     bordercolor="#666666"
     borderopacity="1"
     objecttolerance="10"
     gridtolerance="10"
     guidetolerance="10"
     inkscape:pageopacity="0"
     inkscape:pageshadow="2"
     inkscape:window-width="1024"
     inkscape:window-height="705"
     id="namedview311"
     showgrid="false"
     inkscape:zoom="7.625"
     inkscape:cx="25.217135"
     inkscape:cy="21.229175"
     inkscape:window-x="-4"
     inkscape:window-y="-4"
     inkscape:window-maximized="1"
     inkscape:current-layer="svg2" /><g
     id="background"
     transform="translate(-1.1,0.5)"><rect
       height="32"
       width="32"
       id="rect302"
       x="0"
       y="0"
       style="fill:none" /></g><g
     id="group_x5F_full"
     transform="translate(-8)"><g
       id="g307"><path
         d="m 16,8 c 1.657,0 3,-1.343 3,-3 0,-1.657 -1.343,-3 -3,-3 -1.657,0 -3,1.343 -3,3 0,1.657 1.343,3 3,3 z m 6,3 c 0,0 0,-2 -2,-2 h -8 c 0,0 -2,0 -2,2 v 7 c 0,2 2,2 2,2 v 10 h 8 V 20 c 0,0 2,0 2,-2 z"
         id="path305"
         inkscape:connector-curvature="0"
         sodipodi:nodetypes="ssssscscssccccsc" /></g></g></svg>