<?xml version="1.0" encoding="UTF-8" standalone="no"?>
<svg
   xmlns:dc="http://purl.org/dc/elements/1.1/"
   xmlns:cc="http://creativecommons.org/ns#"
   xmlns:rdf="http://www.w3.org/1999/02/22-rdf-syntax-ns#"
   xmlns:svg="http://www.w3.org/2000/svg"
   xmlns="http://www.w3.org/2000/svg"
   xmlns:sodipodi="http://sodipodi.sourceforge.net/DTD/sodipodi-0.dtd"
   xmlns:inkscape="http://www.inkscape.org/namespaces/inkscape"
   enable-background="new 0 0 32 32"
   height="32px"
   id="svg2"
   version="1.1"
   viewBox="0 0 32 32"
   width="32px"
   xml:space="preserve"
   sodipodi:docname="outdoors.svg"
   inkscape:version="0.92.1 r15371"><metadata
     id="metadata315"><rdf:RDF><cc:Work
         rdf:about=""><dc:format>image/svg+xml</dc:format><dc:type
           rdf:resource="http://purl.org/dc/dcmitype/StillImage" /><dc:title></dc:title></cc:Work></rdf:RDF></metadata><defs
     id="defs313" /><sodipodi:namedview
     pagecolor="#ffffff"
     bordercolor="#666666"
     borderopacity="1"
     objecttolerance="10"
     gridtolerance="10"
     guidetolerance="10"
     inkscape:pageopacity="0"
     inkscape:pageshadow="2"
     inkscape:window-width="1024"
     inkscape:window-height="705"
     id="namedview311"
     showgrid="false"
     inkscape:zoom="7.625"
     inkscape:cx="43.873362"
     inkscape:cy="26.571117"
     inkscape:window-x="-4"
     inkscape:window-y="-4"
     inkscape:window-maximized="1"
     inkscape:current-layer="svg2" /><g
     id="g5003"
     transform="translate(0,-1)"><g
       id="background"><rect
         id="rect302"
         width="32"
         height="32"
         x="0"
         y="0"
         style="fill:none" /></g><g
       transform="matrix(0.71428571,0,0,0.71428571,8.5714286,8.5714287)"
       id="group_x5F_full"><g
         id="g307"><path
           inkscape:connector-curvature="0"
           id="path305"
           d="M 8,20 C 8,18 8,10 8,10 8,10 8.005,9.55 8.239,9 6.16,9 4,9 4,9 4,9 2,9 2,11 v 7 c 0,2 2,2 2,2 v 10 h 6 v -8 c 0,0 -2,0 -2,-2 z M 8,8 C 8.52,8 9.001,7.856 9.427,7.624 9.486,7.588 9.552,7.556 9.615,7.521 10.446,6.988 11,6.061 11,5 11,3.343 9.657,2 8,2 6.343,2 5,3.343 5,5 5,6.657 6.343,8 8,8 Z M 28,9 H 23.762 C 23.995,9.55 24,10 24,10 c 0,0 0,8 0,10 0,2 -2,2 -2,2 v 8 h 6 V 20 c 0,0 2,0 2,-2 0,-2 0,-7 0,-7 0,0 0,-2 -2,-2 z M 22.38,7.519 c 0.065,0.035 0.134,0.068 0.194,0.105 C 23,7.856 23.48,8 24,8 25.657,8 27,6.657 27,5 27,3.343 25.657,2 24,2 c -1.657,0 -3,1.343 -3,3 0,1.059 0.552,1.985 1.38,2.519 z M 16,8 c 1.657,0 3,-1.343 3,-3 0,-1.657 -1.343,-3 -3,-3 -1.657,0 -3,1.343 -3,3 0,1.657 1.343,3 3,3 z m 6,3 c 0,0 0,-2 -2,-2 -0.5,0 -8,0 -8,0 0,0 -2,0 -2,2 v 7 c 0,2 2,2 2,2 v 10 h 8 V 20 c 0,0 2,0 2,-2 0,-2 0,-7 0,-7 z" /></g></g><path
       style="fill:#000000;stroke-width:0.01411214"
       inkscape:connector-curvature="0"
       d="m 12.777311,7.2773138 h -0.448725 -1.131653 c -0.0057,-0.089174 -0.01464,-0.1776011 -0.02681,-0.2650258 0.0031,-4.994e-4 0.0062,-3.329e-4 0.0093,-9.596e-4 l 0.57317,-0.1112721 C 11.873304,6.8764572 11.95205,6.7597178 11.928582,6.6389947 11.905097,6.5182732 11.787856,6.4395342 11.667648,6.4631432 l -0.57315,0.111272 c -0.0046,9.596e-4 -0.0088,0.00294 -0.0133,0.00391 -0.02309,-0.085453 -0.04942,-0.1694034 -0.07875,-0.2521132 L 12.476891,5.7308418 C 12.590903,5.6848838 12.646037,5.5552286 12.600074,5.4412164 12.554142,5.3272026 12.424477,5.2723222 12.310466,5.3180142 L 10.826474,5.9171319 C 10.78686,5.838892 10.745012,5.7618766 10.699789,5.6871164 L 11.218072,5.350557 c 0.103069,-0.06706 0.132371,-0.204923 0.06556,-0.3079989 -0.06707,-0.1030957 -0.204923,-0.1321457 -0.307998,-0.065314 L 10.445066,5.321763 C 10.378625,5.2378112 10.308445,5.1573276 10.234682,5.0798239 l 1.154257,-1.154265 c 0.08695,-0.086694 0.08695,-0.2277698 0,-0.3147033 -0.08693,-0.086938 -0.227768,-0.086938 -0.314686,0 L 9.9083219,4.7767881 C 9.8433507,4.7236328 9.7761762,4.6734641 9.7075068,4.6250254 L 10.082804,4.0686392 C 10.151474,3.9667841 10.124663,3.8284366 10.022843,3.7596398 9.921109,3.6910945 9.7826413,3.717664 9.713845,3.8197639 L 9.3278353,4.3920526 C 9.2557924,4.3540426 9.1822677,4.3185295 9.1072479,4.2854972 L 9.7682189,2.7295921 C 9.8162741,2.6165739 9.7635023,2.4859296 9.6503535,2.4377372 9.537203,2.3898044 9.4065654,2.4424702 9.3584863,2.555717 L 8.6890778,4.1314921 C 8.612449,4.1088885 8.5349437,4.0887818 8.4561984,4.0711395 L 8.6094561,3.3508141 C 8.6349175,3.2305822 8.5581744,3.1123609 8.4379505,3.0867887 8.3181104,3.0611983 8.1996248,3.1379365 8.1740539,3.2581668 L 8.0158284,4.0018336 C 7.9191875,3.9928574 7.8213347,3.9879613 7.72248,3.9871453 V 2.6711882 2.2225619 C 7.72248,2.0996046 7.62275,2 7.4999165,2 7.3769722,2 7.2773545,2.0996029 7.2773545,2.2225619 v 0.4485822 1.3403021 c -0.074894,0.00882 -0.1489116,0.020107 -0.2223088,0.033538 L 6.9000661,3.2471538 C 6.8764572,3.1266935 6.7594665,3.0476933 6.6390054,3.0713023 6.5184177,3.0946403 6.4395451,3.2116408 6.4631399,3.3321093 l 0.1594676,0.8206644 c -0.069049,0.022114 -0.1371136,0.046709 -0.204414,0.073017 L 5.7309187,2.5228608 C 5.6847158,2.408847 5.5549398,2.3537137 5.4411829,2.3999199 5.3271707,2.4458779 5.272147,2.5755315 5.3180949,2.689529 L 6.0138395,4.4131026 C 5.9341049,4.4565636 5.8567286,4.5037621 5.7808471,4.55318 L 5.2860609,3.8196857 C 5.2173784,3.7178468 5.079036,3.6910325 4.977189,3.7598226 4.8752294,3.8283848 4.8484021,3.966735 4.9171987,4.068569 l 0.5060897,0.7503712 c -0.052158,0.044212 -0.102836,0.09017 -0.1523829,0.1373682 L 3.9256382,3.6108164 c -0.086932,-0.086938 -0.2277704,-0.086938 -0.3147002,0 -0.086945,0.086938 -0.086945,0.2280245 0,0.3147017 L 4.9678772,5.2824572 C 4.9257785,5.3341115 4.8854202,5.3872826 4.8461584,5.4411724 L 4.068706,4.9168231 C 3.9671137,4.8482609 3.8285174,4.8748476 3.7598341,4.9769469 3.691152,5.0787855 3.7179776,5.2171348 3.8198099,5.2859462 l 0.7876417,0.5310521 c -0.0313,0.057366 -0.060977,0.115499 -0.089174,0.174368 L 2.729521,5.2315688 c -0.11325,-0.048194 -0.2437879,0.00474 -0.2918535,0.1177348 -0.048054,0.113263 0.00472,0.2439138 0.1178654,0.2918532 l 1.7975913,0.7638077 c -0.020252,0.061348 -0.039007,0.123447 -0.055886,0.1862933 L 3.3511256,6.3903007 C 3.2310308,6.3647104 3.1126865,6.4414646 3.0871008,6.5616935 3.0615157,6.681909 3.1382585,6.800145 3.2584926,6.8257172 L 4.2100611,7.0279017 C 4.198882,7.1101239 4.1904437,7.1933245 4.185223,7.2772779 H 2.6712584 2.2225487 C 2.0996599,7.2772779 2,7.3768809 2,7.4998382 2,7.6227793 2.0996747,7.7224018 2.2225487,7.7224018 h 0.4487097 1.5139233 c 0.00399,0.064596 0.00992,0.1284248 0.017513,0.1917573 L 3.247401,8.099958 C 3.1268133,8.1232958 3.0479409,8.2400353 3.0714226,8.3607502 3.0920269,8.4670609 3.1851801,8.540837 3.2896237,8.540837 c 0.014051,0 0.028437,-0.00115 0.042717,-0.00391 L 4.2825543,8.352139 c 0.015635,0.062588 0.032541,0.1246872 0.051411,0.1857857 L 2.5228546,9.2691839 C 2.4088424,9.315125 2.3538205,9.4447678 2.3997829,9.5587816 c 0.035014,0.086694 0.1183583,0.1393429 0.2064048,0.1393429 0.027815,0 0.055884,-0.00523 0.083206,-0.016157 L 4.4934326,8.9534557 c 0.027335,0.060141 0.056138,0.11922 0.086818,0.1771082 L 3.781799,9.6492011 c -0.1030748,0.06706 -0.1323856,0.2049213 -0.065324,0.3077557 0.042478,0.065819 0.1138979,0.1013322 0.1867873,0.1013322 0.041477,0 0.083461,-0.01142 0.1209695,-0.03576 L 4.8122404,9.5105828 c 0.049549,0.070798 0.1012272,0.139849 0.1556143,0.2066579 L 3.610789,11.074194 c -0.086932,0.08694 -0.086932,0.228008 0,0.314717 0.043466,0.04346 0.1004791,0.06531 0.157364,0.06531 0.056872,0 0.1138702,-0.02187 0.1573508,-0.06531 l 1.3453958,-1.34527 c 0.049547,0.04694 0.1003372,0.0929 0.1525086,0.137107 l -0.5062163,0.750369 c -0.068797,0.101855 -0.041857,0.240204 0.060118,0.309001 0.038004,0.02584 0.081356,0.03801 0.124201,0.03801 0.07152,0 0.1417012,-0.03427 0.1846711,-0.0981 l 0.4946727,-0.733493 c 0.058608,0.03825 0.1183583,0.07452 0.1793379,0.109297 l -0.7285249,1.714356 c -0.048065,0.113247 0.00472,0.243914 0.1178638,0.291853 0.028451,0.01224 0.057873,0.0179 0.086803,0.0179 0.086692,0 0.169036,-0.05091 0.2050506,-0.135605 l 0.7191975,-1.693017 c 0.067186,0.02757 0.1355045,0.05265 0.2046674,0.07623 l -0.1746228,0.821172 c -0.025585,0.120233 0.051158,0.238212 0.1713919,0.263783 0.015651,0.0034 0.0313,0.005 0.04657,0.005 0.1028505,0 0.1952266,-0.07178 0.2174684,-0.176347 L 6.99546,10.944152 c 0.09314,0.01888 0.1875356,0.03328 0.2831461,0.04446 -1.666e-4,0.0043 -0.00116,0.0082 -0.00116,0.0124 v 9.6e-4 1.326626 0.448852 c 0,0.122958 0.099617,0.22255 0.222562,0.22255 0.122817,0 0.2225636,-0.09958 0.2225636,-0.22255 V 12.328598 11.01291 c 0.077871,-8.06e-4 0.1551067,-0.0044 0.2317493,-0.01012 l 0.1457927,0.749905 c 0.020618,0.106311 0.1137724,0.180086 0.2182018,0.180086 0.014051,0 0.028462,-0.0014 0.042732,-0.0043 0.1205892,-0.02335 0.199462,-0.140094 0.1759938,-0.260804 L 8.3960874,10.942693 c 0.077983,-0.01616 0.1547413,-0.03553 0.2308596,-0.05639 l 0.6420884,1.590679 c 0.035013,0.08668 0.1183452,0.139343 0.2064184,0.139343 0.027803,0 0.055872,-0.0052 0.083206,-0.01616 0.1139975,-0.04596 0.169134,-0.175613 0.1231842,-0.289624 L 9.0482104,10.740639 c 0.096004,-0.04026 0.1895249,-0.08519 0.2810571,-0.13363 0.0026,0.0043 0.00422,0.009 0.00706,0.01322 l 0.37757,0.559859 c 0.042975,0.06383 0.1132354,0.0981 0.1847847,0.0981 0.042733,0 0.08607,-0.01224 0.1242138,-0.03801 0.101821,-0.06879 0.128774,-0.207151 0.0601,-0.309 L 9.707665,10.374795 c 0.068571,-0.04844 0.1358863,-0.09861 0.200732,-0.151763 l 1.165931,1.165931 c 0.04346,0.04346 0.100335,0.06531 0.157336,0.06531 0.057,0 0.11387,-0.02187 0.157336,-0.06531 0.08695,-0.08671 0.08695,-0.227772 0,-0.314716 L 10.23488,9.9199734 c 0.059,-0.062083 0.116497,-0.1256666 0.171013,-0.191981 l 0.525591,0.3546926 c 0.038,0.02559 0.08135,0.03801 0.124189,0.03801 0.07153,0 0.141714,-0.03453 0.184684,-0.09812 0.06867,-0.1020835 0.04184,-0.2404406 -0.06024,-0.3089991 l -0.51429,-0.3470044 c 0.04609,-0.073034 0.08957,-0.1477969 0.130269,-0.2245368 l 1.474179,0.6261986 c 0.02834,0.012077 0.05787,0.017871 0.08694,0.017871 0.08657,0 0.168908,-0.050903 0.204921,-0.1356056 0.04807,-0.1132794 -0.0047,-0.2439155 -0.117849,-0.2918679 L 10.979535,8.7364133 c 0.03116,-0.082451 0.05886,-0.1666486 0.08382,-0.2518602 l 0.585682,0.1244425 c 0.01553,0.00342 0.03107,0.00506 0.04647,0.00506 0.102807,0 0.195227,-0.071761 0.217454,-0.1763444 0.02548,-0.1202319 -0.05131,-0.2384515 -0.171505,-0.2640385 L 11.16134,8.0503703 c 0.01705,-0.1078122 0.02871,-0.2171159 0.03564,-0.327882 h 1.131653 0.448725 c 0.122816,0 0.222562,-0.099619 0.222562,-0.2225602 -1.6e-5,-0.1229575 -0.09975,-0.2225637 -0.222562,-0.2225637 z M 7.6910664,10.568463 c -1.6920185,0 -3.0684602,-1.376569 -3.0684602,-3.0685872 0,-0.9860857 0.4679724,-1.8643985 1.1930116,-2.4260055 0.012159,-0.00555 0.024838,-0.00963 0.036271,-0.017382 0.019375,-0.012893 0.034898,-0.029067 0.048672,-0.046203 0.5042268,-0.3636415 1.1225921,-0.5789914 1.7905064,-0.5789914 1.6920186,0 3.0684468,1.3765675 3.0684468,3.0685874 0,1.6920166 -1.3764282,3.0685857 -3.0684468,3.0685857 z"
       id="path4987" /></g></svg>