<?xml version="1.0" encoding="UTF-8" standalone="no"?>
<svg
   xmlns:dc="http://purl.org/dc/elements/1.1/"
   xmlns:cc="http://creativecommons.org/ns#"
   xmlns:rdf="http://www.w3.org/1999/02/22-rdf-syntax-ns#"
   xmlns:svg="http://www.w3.org/2000/svg"
   xmlns="http://www.w3.org/2000/svg"
   xmlns:sodipodi="http://sodipodi.sourceforge.net/DTD/sodipodi-0.dtd"
   xmlns:inkscape="http://www.inkscape.org/namespaces/inkscape"
   enable-background="new 0 0 32 32"
   height="34"
   id="svg2"
   version="1.1"
   viewBox="0 0 37.387001 34"
   width="37.387001"
   xml:space="preserve"
   sodipodi:docname="outdoors.svg"
   inkscape:version="0.92.1 r15371"><metadata
     id="metadata315"><rdf:RDF><cc:Work
         rdf:about=""><dc:format>image/svg+xml</dc:format><dc:type
           rdf:resource="http://purl.org/dc/dcmitype/StillImage" /><dc:title></dc:title></cc:Work></rdf:RDF></metadata><defs
     id="defs313" /><sodipodi:namedview
     pagecolor="#ffffff"
     bordercolor="#666666"
     borderopacity="1"
     objecttolerance="10"
     gridtolerance="10"
     guidetolerance="10"
     inkscape:pageopacity="0"
     inkscape:pageshadow="2"
     inkscape:window-width="1024"
     inkscape:window-height="705"
     id="namedview311"
     showgrid="false"
     inkscape:zoom="10.783378"
     inkscape:cx="24.854664"
     inkscape:cy="17.334639"
     inkscape:window-x="-4"
     inkscape:window-y="-4"
     inkscape:window-maximized="1"
     inkscape:current-layer="svg2" /><g
     id="background"
     transform="translate(0,1)"><rect
       style="fill:none"
       y="0"
       x="0"
       height="32"
       width="32"
       id="rect302" /></g><g
     id="g92"
     transform="matrix(1.0486264,0,0,1.0486264,3.927719,1.5898344)"><g
       transform="matrix(0.71428571,0,0,0.71428571,8.5714286,7.5714287)"
       id="g307"><path
         d="M 8,20 C 8,18 8,10 8,10 8,10 8.005,9.55 8.239,9 6.16,9 4,9 4,9 4,9 2,9 2,11 v 7 c 0,2 2,2 2,2 v 10 h 6 v -8 c 0,0 -2,0 -2,-2 z M 8,8 C 8.52,8 9.001,7.856 9.427,7.624 9.486,7.588 9.552,7.556 9.615,7.521 10.446,6.988 11,6.061 11,5 11,3.343 9.657,2 8,2 6.343,2 5,3.343 5,5 5,6.657 6.343,8 8,8 Z M 28,9 H 23.762 C 23.995,9.55 24,10 24,10 c 0,0 0,8 0,10 0,2 -2,2 -2,2 v 8 h 6 V 20 c 0,0 2,0 2,-2 0,-2 0,-7 0,-7 0,0 0,-2 -2,-2 z M 22.38,7.519 c 0.065,0.035 0.134,0.068 0.194,0.105 C 23,7.856 23.48,8 24,8 25.657,8 27,6.657 27,5 27,3.343 25.657,2 24,2 c -1.657,0 -3,1.343 -3,3 0,1.059 0.552,1.985 1.38,2.519 z M 16,8 c 1.657,0 3,-1.343 3,-3 0,-1.657 -1.343,-3 -3,-3 -1.657,0 -3,1.343 -3,3 0,1.657 1.343,3 3,3 z m 6,3 c 0,0 0,-2 -2,-2 -0.5,0 -8,0 -8,0 0,0 -2,0 -2,2 v 7 c 0,2 2,2 2,2 v 10 h 8 V 20 c 0,0 2,0 2,-2 0,-2 0,-7 0,-7 z"
         id="path305"
         inkscape:connector-curvature="0" /></g><path
       d="m 9.6542496,7.2058857 h 0.4860264 c 0.304155,0 0.550511,-0.2464247 0.550511,-0.5505442 0,-0.3035347 -0.246322,-0.5505448 -0.550511,-0.5505448 H 9.6542496 8.7061856 C 8.6816104,5.9210635 8.644663,5.7410177 8.5961723,5.5659355 L 9.9307286,5.0270398 C 10.212756,4.9133736 10.349238,4.5926421 10.235537,4.3105801 10.121217,4.0285526 9.7998996,3.8921743 9.5190776,4.0058405 L 8.1629817,4.5533173 C 8.0573464,4.3763734 7.9424055,4.2061511 7.8121619,4.0476463 L 8.8561086,3.0043205 C 9.0711356,2.7892589 9.0705146,2.4402655 8.8554756,2.2252032 8.6404474,2.0107964 8.291972,2.0107964 8.0769441,2.2258361 L 7.0041163,3.2992844 C 6.8640844,3.1997491 6.7184352,3.1075556 6.5659959,3.0264588 L 7.166963,1.6113927 C 7.2861438,1.3318127 7.1553109,1.0086337 6.8757336,0.88941935 6.5955325,0.77082527 6.2723545,0.90107103 6.1537256,1.1813035 L 5.5325962,2.6436559 C 5.3512881,2.6031138 5.1657629,2.5748166 4.9765496,2.5588592 V 1.4270615 0.9416561 c 0,-0.30415375 -0.2463904,-0.5505102 -0.5505792,-0.5505102 -0.3035678,0 -0.5505791,0.24635645 -0.5505791,0.5505102 V 1.4270615 2.6147622 C 3.7249172,2.6424378 3.5761312,2.6774529 3.4317919,2.7217067 L 2.7977381,1.1505489 C 2.6840383,0.86852121 2.3620314,0.73214303 2.0812787,0.84642914 1.7992516,0.96009502 1.6627698,1.2808263 1.7764702,1.562854 L 2.4315125,3.1862265 C 2.2907573,3.275939 2.1537243,3.3705805 2.0253422,3.4762503 L 0.77498479,2.225858 c -0.2150277,-0.215027 -0.5635037,-0.215027 -0.7785313,0 -0.2150277,0.2150621 -0.2150277,0.5634354 0,0.7784971 L 1.2769338,4.2848352 C 1.1982844,4.3948126 1.1258388,4.5090988 1.0582185,4.6270724 l -1.67620785,-0.712737 c -0.28020086,-0.1185937 -0.60341445,0.011652 -0.72197405,0.2918848 -0.1186286,0.2795457 0.011651,0.602759 0.2918157,0.7219397 l 1.69709339,0.7207672 c -0.03812,0.1493028 -0.067621,0.3010867 -0.088437,0.4559386 H -0.80237756 -1.287783 c -0.3041543,0 -0.5505447,0.2470102 -0.5505447,0.5505449 0,0.3041188 0.2463559,0.5505441 0.5505447,0.5505441 h 0.48540544 1.36288585 c 0.017785,0.1314845 0.041152,0.2611074 0.070688,0.3883182 L -1.0788562,8.284298 c -0.2814414,0.1136993 -0.4178542,0.434397 -0.3041537,0.716459 0.08661,0.2144415 0.2925043,0.3446844 0.51056491,0.3446844 0.0688614,0 0.13830805,-0.012923 0.20589445,-0.039945 L 1.0213406,8.6234679 c 0.076788,0.1401002 0.1633646,0.2734457 0.2555586,0.4030685 l -1.28048021,1.2805146 c -0.2150277,0.215027 -0.2150277,0.563469 0,0.778496 0.1074965,0.107497 0.2482172,0.160987 0.3889725,0.160987 0.1413415,0 0.2820276,-0.05349 0.3895587,-0.160987 L 2.0253077,9.8351213 c 0.1099777,0.090367 0.2255049,0.1739447 0.3446847,0.2525597 L 1.6855512,11.69937 c -0.1191804,0.2802 0.01103,0.603414 0.2912299,0.721974 0.070033,0.03008 0.1432018,0.04422 0.215027,0.04422 0.2138556,0 0.4178542,-0.125935 0.5069124,-0.335448 L 3.362965,10.566989 c 0.1665011,0.05407 0.3378958,0.09705 0.5123924,0.129657 v 1.187079 0.486027 c 0,0.304154 0.2470107,0.550579 0.5505784,0.550579 0.3041544,0 0.5505793,-0.246391 0.5505793,-0.550579 v -0.486027 -1.131177 c 0.1633646,-0.01414 0.3255916,-0.03374 0.4828898,-0.06638 l 0.5953842,1.474068 c 0.086093,0.214441 0.2925041,0.344685 0.5105647,0.344685 0.068862,0 0.1383083,-0.01286 0.205895,-0.03991 0.2820268,-0.113701 0.4184395,-0.434398 0.3048079,-0.716461 l -0.5775644,-1.4304 c 0.1762878,-0.0903 0.3446844,-0.192316 0.5056365,-0.306015 l 1.0728278,1.073447 c 0.107497,0.107497 0.2488374,0.160987 0.3895245,0.160987 0.1407203,0 0.2820265,-0.05349 0.3896275,-0.160987 0.215027,-0.215027 0.215027,-0.563468 0,-0.778496 L 7.8128165,9.2631412 C 7.9264481,9.1248682 8.0278436,8.9767717 8.1230706,8.8244361 l 1.347515,0.572016 c 0.07,0.030122 0.143099,0.04425 0.214406,0.04425 0.214477,0 0.4184764,-0.1259707 0.5075334,-0.3354833 C 10.311154,8.8250185 10.180875,8.501839 9.9006396,8.3832453 L 8.576562,7.8210182 C 8.6355647,7.6219478 8.6778892,7.4161226 8.7062536,7.2059893 h 0.947996 z M 4.6330363,9.6685518 c -1.6614219,0 -3.0125898,-1.351788 -3.0125898,-3.0132103 0,-1.6608365 1.3511679,-3.0126253 3.0125898,-3.0126253 1.6614918,0 3.0132791,1.3517888 3.0132791,3.0126253 -3.45e-5,1.6614568 -1.3517873,3.0132103 -3.0132791,3.0132103 z"
       id="path167"
       style="fill:#000000;stroke-width:0.03446505"
       inkscape:connector-curvature="0" /></g></svg>