<?xml version="1.0" encoding="UTF-8" standalone="no"?>
<svg
   xmlns:dc="http://purl.org/dc/elements/1.1/"
   xmlns:cc="http://creativecommons.org/ns#"
   xmlns:rdf="http://www.w3.org/1999/02/22-rdf-syntax-ns#"
   xmlns:svg="http://www.w3.org/2000/svg"
   xmlns="http://www.w3.org/2000/svg"
   xmlns:sodipodi="http://sodipodi.sourceforge.net/DTD/sodipodi-0.dtd"
   xmlns:inkscape="http://www.inkscape.org/namespaces/inkscape"
   data-name="Layer 1"
   id="Layer_1"
   viewBox="0 0 24 30"
   version="1.1"
   sodipodi:docname="stove.svg"
   width="24"
   height="30"
   inkscape:version="0.92.1 r15371">
  <metadata
     id="metadata61">
    <rdf:RDF>
      <cc:Work
         rdf:about="">
        <dc:format>image/svg+xml</dc:format>
        <dc:type
           rdf:resource="http://purl.org/dc/dcmitype/StillImage" />
        <dc:title></dc:title>
      </cc:Work>
    </rdf:RDF>
  </metadata>
  <defs
     id="defs59" />
  <sodipodi:namedview
     pagecolor="#ffffff"
     bordercolor="#666666"
     borderopacity="1"
     objecttolerance="10"
     gridtolerance="10"
     guidetolerance="10"
     inkscape:pageopacity="0"
     inkscape:pageshadow="2"
     inkscape:window-width="1024"
     inkscape:window-height="705"
     id="namedview57"
     showgrid="false"
     inkscape:zoom="7.375"
     inkscape:cx="16"
     inkscape:cy="16"
     inkscape:window-x="-4"
     inkscape:window-y="-4"
     inkscape:window-maximized="1"
     inkscape:current-layer="Layer_1" />
  <g
     id="g81"
     transform="translate(-4,-1)">
    <path
       id="path40"
       d="M 23.91,4 A 1.5,1.5 0 0 0 22.5,3 h -4 A 1.5,1.5 0 0 0 17.09,4 H 12.91 A 1.5,1.5 0 0 0 11.5,3 h -2 A 1.5,1.5 0 0 0 8.09,4 H 6 V 29 H 26 V 4 Z M 25,5 V 9 H 7 V 5 Z M 7,28 V 10 h 18 v 18 z"
       inkscape:connector-curvature="0" />
    <circle
       id="circle42"
       r="1"
       cy="7"
       cx="9" />
    <circle
       id="circle44"
       r="1"
       cy="7"
       cx="17" />
    <circle
       id="circle46"
       r="1"
       cy="7"
       cx="14" />
    <circle
       id="circle48"
       r="1"
       cy="7"
       cx="20" />
    <circle
       id="circle50"
       r="1"
       cy="7"
       cx="23" />
    <rect
       id="rect52"
       y="11"
       x="12"
       width="8"
       height="1" />
    <path
       id="path54"
       d="m 20.5,13 h -9 A 2.5,2.5 0 0 0 9,15.5 v 6 a 2.5,2.5 0 0 0 2.5,2.5 h 9 A 2.5,2.5 0 0 0 23,21.5 v -6 A 2.5,2.5 0 0 0 20.5,13 Z M 22,21.5 A 1.5,1.5 0 0 1 20.5,23 h -9 A 1.5,1.5 0 0 1 10,21.5 v -6 A 1.5,1.5 0 0 1 11.5,14 h 9 a 1.5,1.5 0 0 1 1.5,1.5 z"
       inkscape:connector-curvature="0" />
  </g>
</svg>
