<?xml version="1.0" encoding="UTF-8" standalone="no"?>
<svg
   xmlns:dc="http://purl.org/dc/elements/1.1/"
   xmlns:cc="http://creativecommons.org/ns#"
   xmlns:rdf="http://www.w3.org/1999/02/22-rdf-syntax-ns#"
   xmlns:svg="http://www.w3.org/2000/svg"
   xmlns="http://www.w3.org/2000/svg"
   xmlns:sodipodi="http://sodipodi.sourceforge.net/DTD/sodipodi-0.dtd"
   xmlns:inkscape="http://www.inkscape.org/namespaces/inkscape"
   enable-background="new 0 0 24 24"
   height="34"
   id="Layer_1"
   version="1.1"
   viewBox="0 0 52.000001 34"
   width="52"
   xml:space="preserve"
   sodipodi:docname="vehicles.svg"
   inkscape:version="0.92.1 r15371"><metadata
     id="metadata23"><rdf:RDF><cc:Work
         rdf:about=""><dc:format>image/svg+xml</dc:format><dc:type
           rdf:resource="http://purl.org/dc/dcmitype/StillImage" /><dc:title></dc:title></cc:Work></rdf:RDF></metadata><defs
     id="defs21" /><sodipodi:namedview
     pagecolor="#ffffff"
     bordercolor="#666666"
     borderopacity="1"
     objecttolerance="10"
     gridtolerance="10"
     guidetolerance="10"
     inkscape:pageopacity="0"
     inkscape:pageshadow="2"
     inkscape:window-width="1024"
     inkscape:window-height="705"
     id="namedview19"
     showgrid="false"
     inkscape:zoom="10.166667"
     inkscape:cx="39.803084"
     inkscape:cy="8.3920881"
     inkscape:window-x="-4"
     inkscape:window-y="-4"
     inkscape:window-maximized="1"
     inkscape:current-layer="Layer_1"
     showguides="false"><inkscape:grid
       type="xygrid"
       id="grid18" /></sodipodi:namedview><g
     id="g16"
     transform="matrix(2,0,0,2,2,-15.999998)"><circle
       cx="18"
       cy="21"
       r="1"
       id="circle10" /><circle
       cx="5"
       cy="21"
       r="1"
       id="circle12" /><path
       d="M 23,14 H 18 L 14.8,9.6 C 14.2,9 14.1,9 13.5,9 H 5.1 C 4.6,9 4.2,9.5 4,10 L 3.2,14 H 1 c -0.6,0 -1,0.4 -1,1 v 6 c 0,0.6 0.4,1 1,1 h 1 c 0,0 0,0 0,0 1,1.2 1.7,2 3,2 1.3,0 2,-0.8 3,-2 0,0 0,0 0,0 h 7 c 0,0 0,0 0,0 1,1.2 1.7,2 3,2 1.3,0 2,-0.8 3,-2 0,0 0,0 0,0 h 2 c 0.6,0 1,-0.4 1,-1 v -6 c 0,-0.6 -0.4,-1 -1,-1 z m -9.8,-3 3,4 H 12 V 11 Z M 11,11 v 4 H 5.2 L 6,11 Z M 2,21 C 2,20.8 2,20.6 2.1,20.5 2,20.6 2,20.8 2,21 2,21.2 2,21.4 2.1,21.5 2,21.4 2,21.2 2,21 Z m 3,2 c -1.1,0 -2,-0.9 -2,-2 0,-1.1 0.9,-2 2,-2 1.1,0 2,0.9 2,2 0,1.1 -0.9,2 -2,2 z M 7.9,21.5 C 8,21.4 8,21.2 8,21 8,20.8 8,20.6 7.9,20.5 8,20.6 8,20.8 8,21 8,21.2 8,21.4 7.9,21.5 Z M 15,21 c 0,-0.2 0,-0.4 0.1,-0.5 C 15,20.6 15,20.8 15,21 c 0,0.2 0,0.4 0.1,0.5 C 15,21.4 15,21.2 15,21 Z m 3,2 c -1.1,0 -2,-0.9 -2,-2 0,-1.1 0.9,-2 2,-2 1.1,0 2,0.9 2,2 0,1.1 -0.9,2 -2,2 z m 2.9,-1.5 c 0,-0.2 0.1,-0.3 0.1,-0.5 0,-0.2 0,-0.4 -0.1,-0.5 0,0.2 0.1,0.3 0.1,0.5 0,0.2 0,0.4 -0.1,0.5 z M 22,20 h -1 c 0,0 0,0 0,0 -1,-1.2 -1.7,-2 -3,-2 -1.3,0 -2,0.8 -3,2 0,0 0,0 0,0 H 8 c 0,0 0,0 0,0 -1,-1.2 -1.7,-2 -3,-2 -1.3,0 -2,0.8 -3,2 0,0 0,0 0,0 v 0 -4 h 3 12 v 0 h 5 z"
       id="path14"
       inkscape:connector-curvature="0" /></g></svg>