<?xml version="1.0" encoding="UTF-8" standalone="no"?>
<svg
   xmlns:dc="http://purl.org/dc/elements/1.1/"
   xmlns:cc="http://creativecommons.org/ns#"
   xmlns:rdf="http://www.w3.org/1999/02/22-rdf-syntax-ns#"
   xmlns:svg="http://www.w3.org/2000/svg"
   xmlns="http://www.w3.org/2000/svg"
   xmlns:sodipodi="http://sodipodi.sourceforge.net/DTD/sodipodi-0.dtd"
   xmlns:inkscape="http://www.inkscape.org/namespaces/inkscape"
   version="1.1"
   viewBox="0 0 49 45.019668"
   xml:space="preserve"
   id="svg30"
   sodipodi:docname="website.svg"
   width="49"
   height="45.019669"
   inkscape:version="0.92.1 r15371"><metadata
     id="metadata36"><rdf:RDF><cc:Work
         rdf:about=""><dc:format>image/svg+xml</dc:format><dc:type
           rdf:resource="http://purl.org/dc/dcmitype/StillImage" /><dc:title></dc:title></cc:Work></rdf:RDF></metadata><defs
     id="defs34" /><sodipodi:namedview
     pagecolor="#ffffff"
     bordercolor="#666666"
     borderopacity="1"
     objecttolerance="10"
     gridtolerance="10"
     guidetolerance="10"
     inkscape:pageopacity="0"
     inkscape:pageshadow="2"
     inkscape:window-width="768"
     inkscape:window-height="1303"
     id="namedview32"
     showgrid="false"
     inkscape:zoom="1.84375"
     inkscape:cx="98.559322"
     inkscape:cy="-81.434779"
     inkscape:window-x="-4"
     inkscape:window-y="-4"
     inkscape:window-maximized="1"
     inkscape:current-layer="svg30" /><g
     id="g28"
     transform="matrix(0.12225337,0,0,0.12225337,-6.7968635,-9.7568667)"
     style="fill:#000000"><g
       id="_x32_0-Search"
       style="fill:#000000" /><g
       id="_x31_9-Web_Page"
       style="fill:#000000" /><g
       id="_x31_8-Wifi"
       style="fill:#000000" /><g
       id="_x31_7-Hotspot"
       style="fill:#000000" /><g
       id="_x31_6-Satelite"
       style="fill:#000000" /><g
       id="_x31_5-Receiver"
       style="fill:#000000" /><g
       id="_x31_4-Receiver"
       style="fill:#000000" /><g
       id="_x31_3-Receiver"
       style="fill:#000000" /><g
       id="_x31_2-Ethernet"
       style="fill:#000000" /><g
       id="_x31_1-Code"
       style="fill:#000000" /><g
       id="_x31_0-Homegroup"
       style="fill:#000000" /><g
       id="_x30_9-Sharing_Option"
       style="fill:#000000" /><g
       id="_x30_8-Data"
       style="fill:#000000" /><g
       id="_x30_7-Connectivity"
       style="fill:#000000" /><g
       id="_x30_6-Computer"
       style="fill:#000000"><g
         id="g20"
         style="fill:#000000"><path
           d="m 256,145.849 c -44.196,0 -80.151,35.956 -80.151,80.151 0,44.195 35.956,80.151 80.151,80.151 44.195,0 80.151,-35.956 80.151,-80.151 0,-44.195 -35.955,-80.151 -80.151,-80.151 z M 308.563,213 h -15.521 c -1.41,-11.824 -4.742,-23.21 -9.838,-33.793 12.482,7.285 21.801,19.411 25.359,33.793 z m -63.343,0 c 1.659,-10.469 5.31,-20.434 10.78,-29.438 5.47,9.005 9.121,18.969 10.78,29.438 z m 21.56,26 c -1.659,10.469 -5.31,20.434 -10.78,29.438 -5.47,-9.005 -9.121,-18.969 -10.78,-29.438 z m -37.984,-59.793 c -5.096,10.582 -8.428,21.968 -9.838,33.793 h -15.521 c 3.558,-14.382 12.877,-26.508 25.359,-33.793 z M 203.437,239 h 15.521 c 1.41,11.824 4.742,23.21 9.838,33.793 C 216.314,265.508 206.995,253.382 203.437,239 Z m 79.767,33.793 c 5.096,-10.582 8.428,-21.968 9.838,-33.793 h 15.521 c -3.558,14.382 -12.877,26.508 -25.359,33.793 z"
           style="fill:#000000"
           id="path16"
           inkscape:connector-curvature="0" /><path
           d="m 398.905,96.168 h -285.81 c -22.684,0 -41.139,18.455 -41.139,41.139 v 177.387 c 0,22.684 18.455,41.139 41.139,41.139 h 105.759 l -9.859,49.865 h -31.964 c -7.18,0 -13,5.82 -13,13 0,7.18 5.82,13 13,13 8.213,0 149.678,0 157.938,0 7.18,0 13,-5.82 13,-13 0,-7.18 -5.82,-13 -13,-13 h -31.964 l -9.859,-49.865 h 105.759 c 22.684,0 41.139,-18.455 41.139,-41.139 V 137.307 C 440.043,114.623 421.589,96.168 398.905,96.168 Z M 276.501,405.697 h -41.003 l 9.859,-49.865 h 21.284 z m 137.542,-91.004 c 0,8.348 -6.792,15.139 -15.139,15.139 -8.051,0 -269.626,0 -285.809,0 -8.348,0 -15.139,-6.791 -15.139,-15.139 V 137.307 c 0,-8.348 6.791,-15.139 15.139,-15.139 h 285.81 c 8.348,0 15.139,6.791 15.139,15.139 v 177.386 z"
           style="fill:#000000"
           id="path18"
           inkscape:connector-curvature="0" /></g></g><g
       id="_x30_5-Laptop"
       style="fill:#000000" /><g
       id="_x30_4-Mobile"
       style="fill:#000000" /><g
       id="_x30_3-Network"
       style="fill:#000000" /><g
       id="_x30_2-Click"
       style="fill:#000000" /><g
       id="_x30_1-Website"
       style="fill:#000000" /></g></svg>