<?xml version="1.0" encoding="UTF-8" standalone="no"?>
<svg
   xmlns:dc="http://purl.org/dc/elements/1.1/"
   xmlns:cc="http://creativecommons.org/ns#"
   xmlns:rdf="http://www.w3.org/1999/02/22-rdf-syntax-ns#"
   xmlns:svg="http://www.w3.org/2000/svg"
   xmlns="http://www.w3.org/2000/svg"
   xmlns:sodipodi="http://sodipodi.sourceforge.net/DTD/sodipodi-0.dtd"
   xmlns:inkscape="http://www.inkscape.org/namespaces/inkscape"
   id="Layer_1"
   version="1.1"
   viewBox="0 0 49 49"
   xml:space="preserve"
   sodipodi:docname="youtube.svg"
   width="49"
   height="49"
   inkscape:version="0.92.1 r15371"><metadata
     id="metadata82"><rdf:RDF><cc:Work
         rdf:about=""><dc:format>image/svg+xml</dc:format><dc:type
           rdf:resource="http://purl.org/dc/dcmitype/StillImage" /><dc:title></dc:title></cc:Work></rdf:RDF></metadata><defs
     id="defs80" /><sodipodi:namedview
     pagecolor="#ffffff"
     bordercolor="#666666"
     borderopacity="1"
     objecttolerance="10"
     gridtolerance="10"
     guidetolerance="10"
     inkscape:pageopacity="0"
     inkscape:pageshadow="2"
     inkscape:window-width="768"
     inkscape:window-height="1303"
     id="namedview78"
     showgrid="false"
     inkscape:zoom="1.5526316"
     inkscape:cx="76"
     inkscape:cy="76"
     inkscape:window-x="-4"
     inkscape:window-y="-4"
     inkscape:window-maximized="1"
     inkscape:current-layer="Layer_1" /><style
     type="text/css"
     id="style25">
	.st0{opacity:0.2;fill:#FFFFFF;}
	.st1{fill:#B32024;}
	.st2{opacity:0.2;fill:#BE3A26;}
	.st3{opacity:0.1;fill:#FFFFFF;}
	.st4{fill:#FFFFFF;}
	.st5{opacity:0.2;}
	.st6{fill:#202020;}
</style><g
     id="g242"
     transform="matrix(0.29605263,0,0,0.29605263,2,2.0000002)"><g
       id="XMLID_121_"><path
         id="XMLID_126_"
         d="M 140,0 H 12 C 5.4,0 0,5.4 0,12 v 1 C 0,6.4 5.4,1 12,1 h 128 c 6.6,0 12,5.4 12,12 V 12 C 152,5.4 146.6,0 140,0 Z"
         class="st0"
         inkscape:connector-curvature="0"
         style="opacity:0.2;fill:#ffffff" /><path
         id="XMLID_125_"
         d="M 140,152 H 12 C 5.4,152 0,146.6 0,140 V 12 C 0,5.4 5.4,0 12,0 h 128 c 6.6,0 12,5.4 12,12 v 128 c 0,6.6 -5.4,12 -12,12 z"
         class="st1"
         inkscape:connector-curvature="0"
         style="fill:#b32024" /><path
         id="XMLID_124_"
         d="M 140,151 H 12 C 5.4,151 0,145.6 0,139 v 1 c 0,6.6 5.4,12 12,12 h 128 c 6.6,0 12,-5.4 12,-12 v -1 c 0,6.6 -5.4,12 -12,12 z"
         class="st2"
         inkscape:connector-curvature="0"
         style="opacity:0.2;fill:#be3a26" /><path
         id="XMLID_123_"
         d="M 140,0 H 12 C 5.4,0 0,5.4 0,12 v 1 C 0,6.4 5.4,1 12,1 h 128 c 6.6,0 12,5.4 12,12 V 12 C 152,5.4 146.6,0 140,0 Z"
         class="st0"
         inkscape:connector-curvature="0"
         style="opacity:0.2;fill:#ffffff" /><path
         id="XMLID_122_"
         d="M 140,152 H 76 V 0 h 64 c 6.6,0 12,5.4 12,12 v 128 c 0,6.6 -5.4,12 -12,12 z"
         class="st3"
         inkscape:connector-curvature="0"
         style="opacity:0.1;fill:#ffffff" /></g><path
       id="XMLID_109_"
       d="m 114.9,105.8 c -0.8,6.9 -7.3,11.7 -14.6,11.7 -13.6,0 -27.2,0 -40.8,0 -3.8,0 -7.5,0.1 -11.3,-0.1 -6.8,-0.5 -12.7,-6.4 -12.9,-13.2 -0.2,-4.7 -0.2,-9.5 0,-14.2 0.3,-7.3 6.7,-13.3 14,-13.4 8.7,-0.1 17.4,0 26.1,0 0,0 0,0 0,0 8.4,0 16.8,0 25.2,0 7.6,0 13.8,4.9 14.6,12.4 0.5,5.5 0.4,11.2 -0.3,16.8 z M 60.4,81.7 c -4.7,0 -9.3,0 -13.9,0 0,1.3 0,2.6 0,4 1.5,0 3,0 4.7,0 0,7.9 0,15.6 0,23.4 1.5,0 3,0 4.5,0 0,-0.4 0,-0.8 0,-1.1 0,-6.2 0,-12.5 0,-18.7 0,-1.2 0.1,-2.3 0.1,-3.5 1.1,0 2.3,-0.1 3.4,-0.1 0.4,0 0.8,0 1.1,0 0.1,-1.5 0.1,-2.7 0.1,-4 z m 13.4,7.2 c -1.3,0 -2.6,0 -4,0 0,0.4 0,0.7 0,1 0,4.4 0,8.8 0,13.2 0,1.1 -0.4,1.8 -1.2,2.2 -0.5,0.2 -1.2,0.5 -1.7,0.3 -0.3,-0.1 -0.5,-1 -0.5,-1.5 0,-4.7 0,-9.5 0,-14.2 0,-0.3 0,-0.6 0,-1 -1.4,0 -2.7,0 -4,0 0,0.2 0,0.4 0,0.6 0,5.4 0,10.8 0,16.3 0,0.5 0.1,1 0.2,1.4 0.3,1.5 1.3,2.4 2.8,2.2 1.1,-0.2 2.1,-0.7 3.1,-1.2 0.5,-0.2 0.9,-0.7 1.5,-1.2 0,0.8 0,1.4 0,2.1 1.4,0 2.7,0 3.9,0 -0.1,-6.8 -0.1,-13.5 -0.1,-20.2 z m 14.8,8.6 c 0,-1.8 0,-3.6 -0.2,-5.3 -0.4,-3.3 -3.6,-4.6 -6.3,-2.7 -0.3,0.2 -0.6,0.5 -1.1,0.9 0,-3 0,-5.9 0,-8.8 -1.2,0 -2.3,0 -3.5,0 -0.2,0 -0.4,0 -0.6,0 0,9.2 0,18.3 0,27.4 1.4,0 2.7,0 4,0 0,-0.4 0.1,-0.8 0.1,-1.3 0.3,0.2 0.4,0.4 0.6,0.6 1.4,1.1 3,1.4 4.7,0.8 1.6,-0.6 2,-2 2.2,-3.6 0,-0.3 0,-0.7 0,-1 0.1,-2.3 0.1,-4.7 0.1,-7 z m 9.9,6.1 c 0,0.4 0,0.8 -0.1,1.2 -0.2,1 -0.7,1.4 -1.7,1.4 -0.9,0 -1.6,-0.4 -1.6,-1.4 -0.1,-1.7 0,-3.5 0,-5.3 2.5,0 5,0 7.5,0 0,-2.3 0.1,-4.5 0,-6.7 -0.1,-1.5 -0.8,-2.7 -2.1,-3.5 C 98.3,88 96,88 93.8,89 c -2.1,1 -3.1,2.8 -3.1,5.1 0,3.2 0,6.3 0,9.5 0,2 0.6,3.8 2.3,5 1.9,1.3 5.3,1.3 7.3,0 1.8,-1.1 2.7,-3.8 2.1,-6.3 -1.3,0 -2.6,0 -4,0 0.1,0.6 0.1,0.9 0.1,1.3 z M 95,93.3 c 0.1,-1 0.7,-1.4 1.6,-1.5 1,0 1.7,0.4 1.8,1.4 0.1,0.9 0,1.9 0,2.9 -1.1,0 -2.3,0 -3.4,0 0,-0.9 -0.1,-1.8 0,-2.8 z m -11.5,12.8 c -0.9,0.2 -1.6,-0.1 -2.2,-0.7 -0.2,-0.2 -0.2,-0.5 -0.2,-0.8 0,-1.9 0,-3.8 0,-5.7 0,-1.8 0,-3.7 0,-5.5 0,-0.9 0.4,-1.4 1.4,-1.5 1,-0.1 1.7,0.3 1.9,1.1 0.1,0.4 0.1,0.8 0.1,1.3 0,3.3 0,6.5 0,9.8 0,0.2 0,0.3 0,0.5 -0.1,0.6 -0.2,1.3 -1,1.5 z m 9.9,-39 c -0.7,0.6 -1.3,1.1 -1.9,1.5 -1.1,0.8 -2.4,1.3 -3.8,1.2 -1.5,-0.2 -2.4,-1 -2.6,-2.5 C 85,66.8 85,66.3 85,65.8 85,59.9 85,53.9 85,48 c 0,-0.2 0,-0.4 0.1,-0.7 1.5,0 2.9,0 4.5,0 0,0.4 0,0.7 0,1.1 0,5.1 0,10.2 0,15.3 0,0.3 0,0.6 0,0.9 0.1,1.2 0.8,1.6 1.8,1.2 1.5,-0.6 2,-1.3 2,-2.9 0,-4.8 0,-9.6 0,-14.5 0,-0.3 0,-0.7 0,-1.1 1.5,0 3,0 4.5,0 0,7.4 0,14.8 0,22.2 -1.5,0 -2.9,0 -4.5,0 0,-0.8 0,-1.5 0,-2.4 z M 75.7,69.9 C 74.5,70 73.3,69.9 72.1,69.6 69.6,69 68,66.9 68,64.3 c -0.1,-2.1 0,-4.2 0,-6.2 0,0 0,0 0,0 0,-1.9 0,-3.7 0,-5.6 0,-3.1 1.5,-5 4.5,-5.7 1.7,-0.4 3.3,-0.4 5,0.2 2.3,0.9 3.7,2.8 3.8,5.3 0,3.8 0,7.5 0,11.3 -0.1,3.7 -1.9,5.9 -5.6,6.3 z m 0.9,-17.6 c 0,-1.3 -0.7,-1.9 -2,-1.9 -1.3,0 -1.9,0.6 -1.9,1.9 0,3.9 0,7.8 0,11.7 0,1.4 0.6,2.1 1.9,2.1 1.3,0 1.9,-0.7 2,-2.1 0,-2 0,-3.9 0,-5.9 0,-1.9 0,-3.8 0,-5.8 z M 61.9,56 c -0.2,0.5 -0.3,1.1 -0.3,1.7 0,3.6 0,7.1 0,10.7 0,0.3 0,0.6 0,1 -1.8,0 -3.4,0 -5.2,0 0,-0.3 0,-0.7 0,-1 0,-3.4 0,-6.7 0,-10.1 0,-0.6 -0.1,-1.2 -0.3,-1.8 -1.8,-5.5 -3.6,-10.9 -5.5,-16.3 -0.1,-0.3 -0.2,-0.6 -0.3,-1 1.3,0 2.6,0.1 3.8,0 1,-0.1 1.4,0.3 1.7,1.3 0.8,3.4 1.8,6.7 2.7,10 0.1,0.3 0.2,0.5 0.4,1.1 0.2,-0.4 0.3,-0.6 0.3,-0.8 1,-3.6 1.9,-7.1 2.8,-10.7 0.1,-0.6 0.4,-0.8 1,-0.8 1.4,0 2.9,0 4.4,0 -0.3,1 -0.6,1.9 -0.9,2.8 -1.4,4.5 -3,9.2 -4.6,13.9 z"
       class="st4"
       inkscape:connector-curvature="0"
       style="fill:#ffffff" /><g
       id="XMLID_24_"
       class="st5"
       style="opacity:0.2"><path
         id="XMLID_108_"
         d="m 55.9,86.7 c 1.1,0 2.3,-0.1 3.4,-0.1 0.4,0 0.8,0 1.1,0 0,-0.3 0,-0.7 0,-1 -0.4,0 -0.8,0 -1.1,0 -1.1,0 -2.3,0.1 -3.4,0.1 0,1.2 -0.1,2.3 -0.1,3.5 0,6.2 0,12.5 0,18.7 0,0.3 0,0.6 0,1 0,-6.2 0,-12.5 0,-18.7 0,-1.2 0.1,-2.3 0.1,-3.5 z"
         class="st4"
         inkscape:connector-curvature="0"
         style="fill:#ffffff" /><path
         id="XMLID_107_"
         d="m 54.2,40.1 c 1,-0.1 1.4,0.3 1.7,1.3 0.8,3.4 1.8,6.7 2.7,10 0.1,0.3 0.2,0.5 0.4,1.1 0.2,-0.4 0.3,-0.6 0.3,-0.8 1,-3.6 1.9,-7.1 2.8,-10.7 0.1,-0.6 0.4,-0.8 1,-0.8 1.3,0 2.7,0 4.1,0 0.1,-0.3 0.2,-0.7 0.3,-1 -1.6,0 -3,0 -4.4,0 -0.6,0 -0.8,0.2 -1,0.8 -0.9,3.6 -1.9,7.2 -2.8,10.7 -0.1,0.2 -0.2,0.4 -0.3,0.8 -0.2,-0.5 -0.3,-0.8 -0.4,-1.1 -0.9,-3.3 -1.9,-6.7 -2.7,-10 -0.3,-1 -0.7,-1.4 -1.7,-1.3 -1.2,0.1 -2.5,0 -3.8,0 0.1,0.4 0.2,0.7 0.3,1 1.2,0.1 2.4,0.1 3.5,0 z"
         class="st4"
         inkscape:connector-curvature="0"
         style="fill:#ffffff" /><path
         id="XMLID_106_"
         d="m 68,59.1 c 0,0 0,0 0,0 0,0.8 0,1.7 0,2.5 0,-0.9 0,-1.7 0,-2.5 z"
         class="st4"
         inkscape:connector-curvature="0"
         style="fill:#ffffff" /><path
         id="XMLID_105_"
         d="m 35.3,90.9 c 0.3,-7.3 6.7,-13.3 14,-13.4 8.7,-0.1 17.4,0 26.1,0 0,0 0,0 0,0 8.4,0 16.8,0 25.2,0 7.6,0 13.8,4.9 14.6,12.4 0.3,2.5 0.4,5.1 0.4,7.6 0,-2.9 -0.1,-5.8 -0.4,-8.6 -0.8,-7.5 -7.1,-12.4 -14.6,-12.4 -8.4,0 -16.8,0 -25.2,0 0,0 0,0 0,0 -8.7,0 -17.4,-0.1 -26.1,0 -7.3,0.1 -13.6,6.2 -14,13.4 -0.1,2.5 -0.2,5 -0.1,7.6 -0.1,-2.2 0,-4.4 0.1,-6.6 z"
         class="st4"
         inkscape:connector-curvature="0"
         style="fill:#ffffff" /><path
         id="XMLID_104_"
         d="m 72.7,65 c 0,1.4 0.6,2.1 1.9,2.1 1.3,0 1.9,-0.7 2,-2.1 0,-2 0,-3.9 0,-5.9 0,-0.2 0,-0.4 0,-0.6 0,1.8 0,3.6 0,5.5 0,1.3 -0.7,2 -2,2.1 -1.3,0 -1.9,-0.6 -1.9,-2.1 0,-3.6 0,-7.2 0,-10.7 0,0 0,0 0,0 0,3.9 0,7.8 0,11.7 z"
         class="st4"
         inkscape:connector-curvature="0"
         style="fill:#ffffff" /><path
         id="XMLID_103_"
         d="m 89.5,49.2 c 0,5.1 0,10.2 0,15.3 0,0.3 0,0.6 0,0.9 0.1,1.2 0.8,1.6 1.8,1.2 1.5,-0.6 2,-1.3 2,-2.9 0,-0.3 0,-0.7 0,-1 0,1.6 -0.5,2.3 -2,2.9 -1.1,0.4 -1.8,0 -1.8,-1.2 0,-0.3 0,-0.6 0,-0.9 0,-5.1 0,-10.2 0,-15.3 0,0.4 0,0.7 0,1 z"
         class="st4"
         inkscape:connector-curvature="0"
         style="fill:#ffffff" /><path
         id="XMLID_102_"
         d="m 97.9,47.2 c -1.5,0 -3,0 -4.5,0 0,0.4 0,0.7 0,1 1.5,0 3,0 4.5,0 0,-0.4 0,-0.7 0,-1 z"
         class="st4"
         inkscape:connector-curvature="0"
         style="fill:#ffffff" /><path
         id="XMLID_101_"
         d="m 51.2,86.6 c 0,-0.3 0,-0.7 0,-1 -1.6,0 -3.1,0 -4.7,0 0,0.3 0,0.7 0,1 1.6,0 3.1,0 4.7,0 z"
         class="st4"
         inkscape:connector-curvature="0"
         style="fill:#ffffff" /><path
         id="XMLID_100_"
         d="m 85,48.1 c 1.5,0 2.9,0 4.5,0 0,-0.3 0,-0.6 0,-1 -1.6,0 -3,0 -4.5,0 0,0.3 -0.1,0.5 -0.1,0.7 0,0.3 0,0.7 0,1 0,-0.1 0.1,-0.4 0.1,-0.7 z"
         class="st4"
         inkscape:connector-curvature="0"
         style="fill:#ffffff" /><path
         id="XMLID_99_"
         d="m 68,53.5 c 0,-3.1 1.5,-5 4.5,-5.7 1.7,-0.4 3.3,-0.4 5,0.2 2.3,0.9 3.7,2.8 3.8,5.3 0,3.4 0,6.9 0,10.3 0,0 0,0 0,0 0,-3.8 0,-7.5 0,-11.3 0,-2.5 -1.4,-4.4 -3.8,-5.3 -1.6,-0.6 -3.3,-0.6 -5,-0.2 -3,0.7 -4.5,2.6 -4.5,5.7 0,1.9 0,3.7 0,5.6 0,0 0,0 0,0 0,-1.5 0,-3.1 0,-4.6 z"
         class="st4"
         inkscape:connector-curvature="0"
         style="fill:#ffffff" /><path
         id="XMLID_98_"
         d="m 56.5,69.4 v 0 c 0,-1.7 0,-3.5 0,-5.2 0,1.4 0,2.8 0,4.2 0,0.3 0,0.6 0,1 z"
         class="st4"
         inkscape:connector-curvature="0"
         style="fill:#ffffff" /><path
         id="XMLID_97_"
         d="m 81,110 c 0,-0.4 0.1,-0.8 0.1,-1.3 0.3,0.2 0.4,0.4 0.6,0.6 1.4,1.1 3,1.4 4.7,0.8 1.6,-0.6 2,-2 2.2,-3.6 0,-0.3 0,-0.7 0,-1 0,-0.3 0,-0.7 0,-1 0,0.3 0,0.7 0,1 -0.1,1.5 -0.5,3 -2.2,3.6 -1.7,0.6 -3.3,0.3 -4.7,-0.8 -0.2,-0.1 -0.4,-0.3 -0.6,-0.6 0,0.5 -0.1,0.9 -0.1,1.3 -1.3,0 -2.6,0 -4,0 0,0.3 0,0.7 0,1 1.4,0 2.7,0 4,0 z"
         class="st4"
         inkscape:connector-curvature="0"
         style="fill:#ffffff" /><path
         id="XMLID_96_"
         d="m 95,99.5 c 0,1.2 0,2.3 0,3.4 0,-0.8 0,-1.6 0,-2.4 2.5,0 5,0 7.5,0 0,-1.4 0,-2.8 0,-4.1 0,1 0,2.1 0,3.1 -2.5,0 -5,0 -7.5,0 z"
         class="st4"
         inkscape:connector-curvature="0"
         style="fill:#ffffff" /><path
         id="XMLID_95_"
         d="m 84.4,94.3 c 0,-0.4 0,-0.8 -0.1,-1.3 -0.2,-0.9 -0.9,-1.3 -1.9,-1.1 -1,0.1 -1.4,0.6 -1.4,1.5 0,1.8 0,3.7 0,5.5 0,0 0,0.1 0,0.1 0,-1.5 0,-3.1 0,-4.6 0,-0.9 0.4,-1.4 1.4,-1.5 1,-0.1 1.7,0.3 1.9,1.1 0.1,0.4 0.1,0.8 0.1,1.3 0,2.9 0,5.9 0,8.8 0,0 0,0 0,0 0,-3.3 0,-6.6 0,-9.8 z"
         class="st4"
         inkscape:connector-curvature="0"
         style="fill:#ffffff" /><path
         id="XMLID_31_"
         d="m 96.6,92.9 c 1,0 1.7,0.4 1.8,1.4 0,0.2 0,0.5 0,0.7 0,-0.6 0,-1.1 0,-1.7 -0.1,-1 -0.8,-1.4 -1.8,-1.4 -1,0 -1.5,0.5 -1.6,1.5 -0.1,0.7 0,1.4 0,2.1 0,-0.4 0,-0.7 0,-1.1 0.1,-1 0.7,-1.5 1.6,-1.5 z"
         class="st4"
         inkscape:connector-curvature="0"
         style="fill:#ffffff" /><path
         id="XMLID_30_"
         d="m 90.7,104.6 c 0,2 0.6,3.8 2.3,5 1.9,1.3 5.3,1.3 7.3,0 1.5,-1 2.4,-3.2 2.3,-5.4 -0.1,1.8 -1,3.5 -2.3,4.4 -2,1.3 -5.5,1.3 -7.3,0 -1.7,-1.2 -2.3,-3 -2.3,-5 0,-1.4 0,-2.8 0,-4.2 0,1.7 0,3.5 0,5.2 z"
         class="st4"
         inkscape:connector-curvature="0"
         style="fill:#ffffff" /><path
         id="XMLID_29_"
         d="m 62.3,106.8 c 0,0.5 0.1,1 0.2,1.4 0.3,1.5 1.3,2.4 2.8,2.2 1.1,-0.2 2.1,-0.7 3.1,-1.2 0.5,-0.2 0.9,-0.7 1.5,-1.2 0,-0.3 0,-0.6 0,-1 -0.6,0.5 -1,1 -1.5,1.2 -1,0.5 -2,1 -3.1,1.2 -1.5,0.2 -2.5,-0.7 -2.8,-2.2 -0.1,-0.5 -0.2,-1 -0.2,-1.4 0,-5.1 0,-10.2 0,-15.3 0,0 0,0 0,0 0,5.4 0,10.8 0,16.3 z"
         class="st4"
         inkscape:connector-curvature="0"
         style="fill:#ffffff" /><path
         id="XMLID_28_"
         d="m 51.2,110 c 1.5,0 3,0 4.5,0 0,-0.4 0,-0.7 0,-1 -1.5,0 -3,0 -4.5,0 0,0.4 0,0.7 0,1 z"
         class="st4"
         inkscape:connector-curvature="0"
         style="fill:#ffffff" /><path
         id="XMLID_27_"
         d="m 69.8,96.7 c 0,2.2 0,4.3 0,6.4 0,0 0,0 0,-0.1 0,-2 0,-4.2 0,-6.3 z"
         class="st4"
         inkscape:connector-curvature="0"
         style="fill:#ffffff" /><path
         id="XMLID_26_"
         d="m 69.9,110 c 1.4,0 2.7,0 3.9,0 0,-0.3 0,-0.7 0,-1 -1.3,0 -2.6,0 -3.9,0 0,0.4 0,0.7 0,1 z"
         class="st4"
         inkscape:connector-curvature="0"
         style="fill:#ffffff" /><path
         id="XMLID_25_"
         d="m 66.4,89.9 v 0 c 0,2.4 0,4.8 0,7.2 0,-2.1 0,-4.1 0,-6.2 0,-0.3 0,-0.7 0,-1 z"
         class="st4"
         inkscape:connector-curvature="0"
         style="fill:#ffffff" /></g><g
       id="XMLID_2_"
       class="st5"
       style="opacity:0.2"><path
         id="XMLID_23_"
         d="m 69.8,88.9 c 0,0.4 0,0.7 0,1 1.4,0 2.7,0 4,0 0,-0.3 0,-0.7 0,-1 -1.3,0 -2.6,0 -4,0 z"
         class="st6"
         inkscape:connector-curvature="0"
         style="fill:#202020" /><path
         id="XMLID_22_"
         d="m 68.6,105.3 c -0.5,0.2 -1.2,0.5 -1.7,0.3 -0.3,-0.1 -0.5,-1 -0.5,-1.5 0,-2.3 0,-4.7 0,-7 0,2.7 0,5.3 0,8 0,0.5 0.2,1.4 0.5,1.5 0.5,0.2 1.2,0 1.7,-0.3 0.9,-0.4 1.3,-1.1 1.2,-2.2 0,-0.3 0,-0.6 0,-0.9 0.1,1 -0.3,1.7 -1.2,2.1 z"
         class="st6"
         inkscape:connector-curvature="0"
         style="fill:#202020" /><path
         id="XMLID_21_"
         d="m 56.5,70.4 c 1.8,0 3.4,0 5.2,0 0,-0.4 0,-0.7 0,-1 -1.8,0 -3.4,0 -5.2,0 0,0 0,0 0,0 0,0.3 0,0.6 0,1 z"
         class="st6"
         inkscape:connector-curvature="0"
         style="fill:#202020" /><path
         id="XMLID_20_"
         d="m 46.5,81.7 c 0,0.3 0,0.7 0,1 4.6,0 9.2,0 13.9,0 0,-0.3 0,-0.7 0,-1 -4.6,0 -9.2,0 -13.9,0 z"
         class="st6"
         inkscape:connector-curvature="0"
         style="fill:#202020" /><path
         id="XMLID_19_"
         d="m 88.6,97.5 c 0,-1.8 0,-3.6 -0.2,-5.3 -0.4,-3.3 -3.6,-4.6 -6.3,-2.7 -0.3,0.2 -0.6,0.5 -1.1,0.9 0,0.3 0,0.7 0,1 0.5,-0.4 0.8,-0.7 1.1,-0.9 2.7,-2 6,-0.6 6.3,2.7 0.2,1.8 0.1,3.5 0.2,5.3 0,2 0,4 0,6.1 0,0 0,0 0,0 0,-2.4 0,-4.8 0,-7.1 z"
         class="st6"
         inkscape:connector-curvature="0"
         style="fill:#202020" /><path
         id="XMLID_18_"
         d="m 81,81.6 c -1.2,0 -2.3,0 -3.5,0 -0.2,0 -0.4,0 -0.6,0 0,0.3 0,0.7 0,1 0.2,0 0.4,0 0.6,0 1.1,0 2.2,0 3.5,0 0,-0.3 0,-0.6 0,-1 z"
         class="st6"
         inkscape:connector-curvature="0"
         style="fill:#202020" /><path
         id="XMLID_17_"
         d="m 69.8,89.9 c 0,2.3 0,4.5 0,6.8 0,-1.9 0,-3.9 0,-5.8 0,-0.3 0,-0.6 0,-1 z"
         class="st6"
         inkscape:connector-curvature="0"
         style="fill:#202020" /><path
         id="XMLID_16_"
         d="m 81.1,105.6 c 0,0.3 0,0.7 0.2,0.8 0.6,0.6 1.4,0.9 2.2,0.7 0.8,-0.2 0.9,-1 0.9,-1.7 0,-0.1 0,-0.3 0,-0.5 0,-0.3 0,-0.7 0,-1 0,0.1 0,0.3 0,0.4 -0.1,0.7 -0.1,1.4 -0.9,1.7 -0.9,0.2 -1.6,-0.1 -2.2,-0.7 -0.2,-0.2 -0.2,-0.5 -0.2,-0.8 0,-1.9 0,-3.7 0,-5.6 0,0.3 0,0.6 0,0.9 -0.1,2 -0.1,3.9 0,5.8 z"
         class="st6"
         inkscape:connector-curvature="0"
         style="fill:#202020" /><path
         id="XMLID_15_"
         d="m 61.9,56 c -0.2,0.5 -0.3,1.1 -0.3,1.7 0,3.6 0,7.1 0,10.7 0,0.3 0,0.6 0,1 0,-3.6 0,-7.1 0,-10.7 0,-0.6 0.1,-1.1 0.3,-1.7 1.6,-4.7 3.2,-9.4 4.8,-14.1 0.3,-0.9 0.6,-1.7 0.9,-2.8 -0.1,0 -0.2,0 -0.3,0 -0.2,0.6 -0.4,1.2 -0.6,1.8 -1.6,4.7 -3.2,9.4 -4.8,14.1 z"
         class="st6"
         inkscape:connector-curvature="0"
         style="fill:#202020" /><path
         id="XMLID_14_"
         d="m 66.4,89.9 c 0,0 0,0 0,0 0,-0.3 0,-0.7 0,-1 -1.4,0 -2.7,0 -4,0 0,0.2 0,0.4 0,0.6 0,0.3 0,0.7 0,1 0,-0.2 0,-0.4 0,-0.6 1.3,0 2.6,0 4,0 z"
         class="st6"
         inkscape:connector-curvature="0"
         style="fill:#202020" /><path
         id="XMLID_7_"
         d="m 68,58.1 c 0,0 0,0 0,0 0,0.3 0,0.7 0,1 0,0 0,0 0,0 0,-0.3 0,-0.7 0,-1 z"
         class="st6"
         inkscape:connector-curvature="0"
         style="fill:#202020" /><path
         id="XMLID_3_"
         d="m 72.2,70.6 c 1.1,0.3 2.4,0.4 3.6,0.3 3.7,-0.4 5.5,-2.6 5.5,-6.3 0,-0.3 0,-0.7 0,-1 0,3.7 -1.8,5.9 -5.5,6.3 -1.2,0.1 -2.4,0 -3.6,-0.3 -2.5,-0.6 -4.1,-2.7 -4.1,-5.3 0,-0.9 0,-1.8 0,-2.8 0,1.3 0,2.5 0,3.8 0,2.6 1.6,4.7 4.1,5.3 z"
         class="st6"
         inkscape:connector-curvature="0"
         style="fill:#202020" /><path
         id="XMLID_87_"
         d="m 76.6,52.3 c 0,-1.3 -0.7,-1.9 -2,-1.9 -1.3,0 -1.9,0.6 -1.9,1.9 0,0.3 0,0.7 0,1 0,-1.3 0.6,-1.9 1.9,-1.9 1.3,0 2,0.6 2,1.9 0,1.8 0,3.5 0,5.3 0,-0.1 0,-0.3 0,-0.4 0,-2 0,-3.9 0,-5.9 z"
         class="st6"
         inkscape:connector-curvature="0"
         style="fill:#202020" /><path
         id="XMLID_88_"
         d="m 56.2,57.5 c 0.2,0.6 0.3,1.2 0.3,1.8 0,1.6 0,3.3 0,4.9 0,-2 0,-3.9 0,-5.9 0,-0.6 -0.1,-1.2 -0.3,-1.8 -1.8,-5.5 -3.6,-10.9 -5.5,-16.3 0,0 0,0 0,0 -0.1,0 -0.2,0 -0.3,0 0.1,0.5 0.2,0.8 0.3,1 1.8,5.4 3.7,10.9 5.5,16.3 z"
         class="st6"
         inkscape:connector-curvature="0"
         style="fill:#202020" /><path
         id="XMLID_89_"
         d="m 114.9,105.8 c -0.8,6.9 -7.3,11.7 -14.6,11.7 -13.6,0 -27.2,0 -40.8,0 -3.8,0 -7.5,0.1 -11.3,-0.1 -6.8,-0.5 -12.7,-6.4 -12.9,-13.2 -0.1,-2.2 -0.1,-4.4 -0.1,-6.6 0,2.5 0,5.1 0.1,7.6 0.3,6.8 6.2,12.8 12.9,13.2 3.8,0.2 7.5,0.1 11.3,0.1 13.6,0 27.2,0 40.8,0 7.3,0 13.8,-4.8 14.6,-11.7 0.4,-3 0.5,-6.1 0.5,-9.2 0,2.7 -0.1,5.5 -0.5,8.2 z"
         class="st6"
         inkscape:connector-curvature="0"
         style="fill:#202020" /><path
         id="XMLID_90_"
         d="m 98.4,95 c 0,0.4 0,0.8 0,1.3 -1.1,0 -2.3,0 -3.4,0 0,-0.3 0,-0.5 0,-0.8 0,0.6 0,1.2 0,1.8 1.2,0 2.3,0 3.4,0 0,-0.8 0.1,-1.6 0,-2.3 z"
         class="st6"
         inkscape:connector-curvature="0"
         style="fill:#202020" /><path
         id="XMLID_91_"
         d="m 102.5,92.8 c -0.1,-1.5 -0.8,-2.7 -2.1,-3.5 C 98.3,88 96,88 93.8,89 c -2.1,1 -3.1,2.8 -3.1,5.1 0,1.7 0,3.5 0,5.2 0,-1.4 0,-2.8 0,-4.2 0,-2.3 1,-4.1 3.1,-5.1 2.2,-1 4.4,-1 6.6,0.2 1.3,0.8 2,2.1 2.1,3.5 0.1,0.8 0.1,1.7 0.1,2.5 0,-1.1 0,-2.2 -0.1,-3.4 z"
         class="st6"
         inkscape:connector-curvature="0"
         style="fill:#202020" /><path
         id="XMLID_92_"
         d="m 85.1,68.2 c 0.3,1.5 1.2,2.4 2.6,2.5 1.4,0.1 2.7,-0.4 3.8,-1.2 0.6,-0.4 1.2,-0.9 1.9,-1.5 0,-0.3 0,-0.6 0,-1 -0.7,0.6 -1.3,1.1 -1.9,1.5 -1.1,0.8 -2.4,1.3 -3.8,1.2 -1.5,-0.2 -2.4,-1 -2.6,-2.5 -0.1,-0.5 -0.1,-1 -0.1,-1.5 0,-5.6 0,-11.2 0,-16.8 0,0 0,0 0,0 0,5.9 0,11.9 0,17.8 -0.1,0.5 0,1 0.1,1.5 z"
         class="st6"
         inkscape:connector-curvature="0"
         style="fill:#202020" /><path
         id="XMLID_93_"
         d="m 93.4,69.4 c 0,0.3 0,0.7 0,1 1.6,0 3,0 4.5,0 0,-0.3 0,-0.7 0,-1 -1.5,0 -2.9,0 -4.5,0 z"
         class="st6"
         inkscape:connector-curvature="0"
         style="fill:#202020" /><path
         id="XMLID_94_"
         d="m 102.5,102.4 c -1.3,0 -2.6,0 -4,0 0,0.5 0,0.8 0,1.2 0,0.4 0,0.8 -0.1,1.2 -0.2,1 -0.7,1.4 -1.7,1.4 -0.9,0 -1.6,-0.4 -1.6,-1.4 0,-0.6 0,-1.3 0,-1.9 0,1 0,1.9 0,2.9 0,0.9 0.7,1.3 1.6,1.4 1,0 1.5,-0.4 1.7,-1.4 0.1,-0.4 0.1,-0.8 0.1,-1.2 0,-0.4 0,-0.7 0,-1.2 1.4,0 2.7,0 4,0 0.1,0.3 0.1,0.6 0.1,0.9 0.1,-0.6 0,-1.3 -0.1,-1.9 z"
         class="st6"
         inkscape:connector-curvature="0"
         style="fill:#202020" /></g></g></svg>